<svg width="57" height="58" viewBox="0 0 57 58" fill="none" xmlns="http://www.w3.org/2000/svg">
<path d="M56.8889 45.0249V12.8643C56.8889 5.89183 43.8649 0 28.4444 0C13.024 0 0 5.89183 0 12.8643V45.0249C0 51.9974 13.024 57.8892 28.4444 57.8892C43.8649 57.8892 56.8889 51.9974 56.8889 45.0249ZM28.4444 6.43213C41.568 6.43213 49.5324 11.2787 49.7778 12.845C49.5324 14.4498 41.568 19.2964 28.4444 19.2964C15.3209 19.2964 7.35644 14.4498 7.11111 12.8836C7.35644 11.2787 15.3209 6.43213 28.4444 6.43213ZM7.11111 21.2486C12.3698 23.9726 20.0427 25.7285 28.4444 25.7285C36.8462 25.7285 44.5191 23.9726 49.7778 21.2486V28.9253C49.5324 30.5301 41.568 35.3767 28.4444 35.3767C15.3209 35.3767 7.35644 30.5301 7.11111 28.9446V21.2486ZM7.11111 45.0249V37.3289C12.3698 40.0529 20.0427 41.8089 28.4444 41.8089C36.8462 41.8089 44.5191 40.0529 49.7778 37.3289V45.0056C49.5324 46.6104 41.568 51.4571 28.4444 51.4571C15.3209 51.4571 7.35644 46.6105 7.11111 45.0249Z" fill="#27AE60"/>
</svg>
