<svg width="190" height="138" viewBox="0 0 190 138" fill="none" xmlns="http://www.w3.org/2000/svg">
<g clip-path="url(#clip0_2_5592)">
<path d="M19.1775 126.622C19.9663 126.948 20.8132 127.03 21.6366 126.859C22.46 126.688 23.2322 126.271 23.8788 125.647C25.5254 124.02 26.0417 121.342 26.4617 118.86L27.7042 111.521L25.1029 113.629C23.2322 115.145 21.3194 116.71 20.0242 118.905C18.729 121.101 18.164 124.098 19.2043 126.474" fill="#E6E6E6"/>
<path d="M19.5802 136.018C19.2528 133.211 18.916 130.368 19.1462 127.531C19.3502 125.011 20.0034 122.55 21.3334 120.532C22.0393 119.463 22.8982 118.547 23.8716 117.825C24.1254 117.636 24.359 118.11 24.1063 118.297C22.422 119.55 21.1193 121.4 20.3859 123.58C19.5759 126.004 19.4458 128.647 19.5853 131.223C19.6697 132.78 19.8489 134.327 20.0289 135.873C20.0431 135.943 20.0342 136.016 20.004 136.079C19.9739 136.141 19.9247 136.188 19.8664 136.209C19.8069 136.228 19.7436 136.219 19.69 136.183C19.6365 136.147 19.5971 136.088 19.5804 136.018L19.5802 136.018Z" fill="#F2F2F2"/>
<path d="M21.9375 131.514C22.2757 132.12 22.7407 132.612 23.2877 132.944C23.8346 133.277 24.4451 133.438 25.0602 133.412C26.6414 133.323 27.9591 132.025 29.1451 130.792L32.654 127.146L30.3318 127.015C28.6618 126.921 26.9487 126.833 25.358 127.44C23.7674 128.047 22.3004 129.505 22.0096 131.442" fill="#E6E6E6"/>
<path d="M18.6556 137.632C20.2318 134.35 22.06 130.702 25.3269 129.536C26.2351 129.213 27.1875 129.097 28.1327 129.195C28.4307 129.225 28.3563 129.765 28.0589 129.735C26.4745 129.581 24.8931 130.073 23.581 131.13C22.3184 132.141 21.3353 133.547 20.5033 135.038C19.9936 135.952 19.537 136.904 19.0805 137.855C18.9346 138.159 18.508 137.939 18.6556 137.632Z" fill="#F2F2F2"/>
<path d="M177.103 130.529C176.645 131.013 176.088 131.349 175.487 131.506C174.887 131.662 174.261 131.634 173.672 131.424C172.163 130.863 171.171 129.212 170.292 127.663L167.691 123.083L169.965 123.655C171.6 124.066 173.275 124.496 174.681 125.561C176.087 126.626 177.189 128.477 177.049 130.438" fill="#E6E6E6"/>
<path d="M178.946 137.431C178.135 133.784 177.16 129.707 174.255 127.597C173.447 127.012 172.551 126.613 171.616 126.424C171.322 126.363 171.276 126.908 171.57 126.968C173.136 127.295 174.557 128.247 175.597 129.663C176.598 131.021 177.243 132.676 177.723 134.368C178.018 135.404 178.252 136.462 178.487 137.519C178.562 137.856 179.022 137.772 178.946 137.431Z" fill="#F2F2F2"/>
<path d="M147.007 84.0209H93.8625C93.4381 84.0203 93.0312 83.8216 92.7311 83.4685C92.431 83.1153 92.2622 82.6365 92.2617 82.1371V61.0381C92.2622 60.5387 92.431 60.0599 92.7311 59.7067C93.0312 59.3535 93.4381 59.1549 93.8625 59.1543H147.007C147.431 59.1549 147.838 59.3535 148.138 59.7067C148.438 60.0599 148.607 60.5387 148.608 61.0381V82.1371C148.607 82.6365 148.438 83.1153 148.138 83.4685C147.838 83.8216 147.431 84.0203 147.007 84.0209Z" fill="#F1F1F1"/>
<path d="M114.672 64.8057H100.586V66.6895H114.672V64.8057Z" fill="#0077B5"/>
<path d="M133.238 67.0663C133.768 67.0663 134.198 66.5602 134.198 65.936C134.198 65.3117 133.768 64.8057 133.238 64.8057C132.707 64.8057 132.277 65.3117 132.277 65.936C132.277 66.5602 132.707 67.0663 133.238 67.0663Z" fill="#0077B5"/>
<path d="M136.441 67.0663C136.971 67.0663 137.401 66.5602 137.401 65.936C137.401 65.3117 136.971 64.8057 136.441 64.8057C135.91 64.8057 135.48 65.3117 135.48 65.936C135.48 66.5602 135.91 67.0663 136.441 67.0663Z" fill="#0077B5"/>
<path d="M139.64 67.0663C140.171 67.0663 140.601 66.5602 140.601 65.936C140.601 65.3117 140.171 64.8057 139.64 64.8057C139.11 64.8057 138.68 65.3117 138.68 65.936C138.68 66.5602 139.11 67.0663 139.64 67.0663Z" fill="#0077B5"/>
<path d="M147.007 110.771H93.8625C93.4381 110.77 93.0312 110.572 92.7311 110.218C92.431 109.865 92.2622 109.386 92.2617 108.887V87.7881C92.2622 87.2887 92.431 86.8099 92.7311 86.4567C93.0312 86.1035 93.4381 85.9049 93.8625 85.9043H147.007C147.431 85.9049 147.838 86.1035 148.138 86.4567C148.438 86.8098 148.607 87.2887 148.608 87.7881V108.887C148.607 109.387 148.438 109.865 148.138 110.218C147.838 110.572 147.431 110.77 147.007 110.771Z" fill="#F1F1F1"/>
<path d="M114.672 91.5557H100.586V93.4395H114.672V91.5557Z" fill="#0077B5"/>
<path d="M133.238 93.8163C133.768 93.8163 134.198 93.3102 134.198 92.686C134.198 92.0617 133.768 91.5557 133.238 91.5557C132.707 91.5557 132.277 92.0617 132.277 92.686C132.277 93.3102 132.707 93.8163 133.238 93.8163Z" fill="#0077B5"/>
<path d="M136.441 93.8163C136.971 93.8163 137.401 93.3102 137.401 92.686C137.401 92.0617 136.971 91.5557 136.441 91.5557C135.91 91.5557 135.48 92.0617 135.48 92.686C135.48 93.3102 135.91 93.8163 136.441 93.8163Z" fill="#0077B5"/>
<path d="M139.64 93.8163C140.171 93.8163 140.601 93.3102 140.601 92.686C140.601 92.0617 140.171 91.5557 139.64 91.5557C139.11 91.5557 138.68 92.0617 138.68 92.686C138.68 93.3102 139.11 93.8163 139.64 93.8163Z" fill="#0077B5"/>
<path d="M147.007 137.522H93.8625C93.4381 137.521 93.0312 137.323 92.7311 136.969C92.431 136.616 92.2622 136.137 92.2617 135.638V114.539C92.2622 114.04 92.431 113.561 92.7311 113.208C93.0312 112.854 93.4381 112.656 93.8625 112.655H147.007C147.431 112.656 147.838 112.854 148.138 113.208C148.438 113.561 148.607 114.04 148.608 114.539V135.638C148.607 136.137 148.438 136.616 148.138 136.969C147.838 137.323 147.431 137.521 147.007 137.522Z" fill="#F1F1F1"/>
<path d="M114.672 118.307H100.586V120.19H114.672V118.307Z" fill="#0077B5"/>
<path d="M133.238 120.567C133.768 120.567 134.198 120.061 134.198 119.437C134.198 118.813 133.768 118.307 133.238 118.307C132.707 118.307 132.277 118.813 132.277 119.437C132.277 120.061 132.707 120.567 133.238 120.567Z" fill="#0077B5"/>
<path d="M136.441 120.567C136.971 120.567 137.401 120.061 137.401 119.437C137.401 118.813 136.971 118.307 136.441 118.307C135.91 118.307 135.48 118.813 135.48 119.437C135.48 120.061 135.91 120.567 136.441 120.567Z" fill="#0077B5"/>
<path d="M139.64 120.567C140.171 120.567 140.601 120.061 140.601 119.437C140.601 118.813 140.171 118.307 139.64 118.307C139.11 118.307 138.68 118.813 138.68 119.437C138.68 120.061 139.11 120.567 139.64 120.567Z" fill="#0077B5"/>
<path d="M126.97 38.5512L126.911 38.5001L126.91 38.4989C126.834 38.4326 126.748 38.3846 126.656 38.3575C126.565 38.3305 126.469 38.3249 126.376 38.3411C126.282 38.3573 126.193 38.3951 126.112 38.4521C126.031 38.5092 125.96 38.5845 125.904 38.6737L113.942 57.628H112.625V57.2641C112.625 57.1743 112.595 57.0883 112.541 57.0248C112.487 56.9613 112.414 56.9256 112.338 56.9256H111.553C111.476 56.9256 111.403 56.9613 111.349 57.0248C111.295 57.0883 111.265 57.1743 111.265 57.2641V57.628H110.811V57.2641C110.811 57.1743 110.78 57.0883 110.726 57.0248C110.672 56.9613 110.599 56.9256 110.523 56.9256H109.738C109.662 56.9256 109.588 56.9613 109.534 57.0248C109.48 57.0883 109.45 57.1743 109.45 57.2641V57.628H108.997V57.2641C108.997 57.1743 108.967 57.0883 108.913 57.0248C108.859 56.9613 108.786 56.9256 108.71 56.9256H107.924C107.848 56.9256 107.775 56.9613 107.721 57.0248C107.667 57.0883 107.637 57.1743 107.637 57.2641V57.628H107.182V57.2641C107.182 57.1743 107.152 57.0883 107.098 57.0248C107.044 56.9613 106.971 56.9256 106.895 56.9256H106.109C106.033 56.9256 105.96 56.9613 105.906 57.0248C105.852 57.0883 105.822 57.1743 105.822 57.2641V57.628H105.369V57.2641C105.369 57.1743 105.339 57.0883 105.285 57.0248C105.231 56.9613 105.158 56.9256 105.081 56.9256H104.296C104.258 56.9256 104.221 56.9344 104.186 56.9514C104.151 56.9684 104.119 56.9933 104.093 57.0248C104.066 57.0562 104.045 57.0935 104.03 57.1346C104.016 57.1757 104.008 57.2197 104.008 57.2641V57.628H103.554V57.2641C103.554 57.1743 103.524 57.0883 103.47 57.0248C103.416 56.9613 103.343 56.9256 103.266 56.9256H102.481C102.405 56.9256 102.332 56.9613 102.278 57.0248C102.224 57.0883 102.194 57.1743 102.194 57.2641V57.628H101.739V57.2641C101.739 57.1743 101.709 57.0883 101.655 57.0248C101.601 56.9613 101.528 56.9256 101.451 56.9256H100.666C100.59 56.9256 100.517 56.9613 100.463 57.0248C100.409 57.0883 100.379 57.1743 100.379 57.2641V57.628H99.9257V57.2641C99.9257 57.1743 99.8954 57.0883 99.8415 57.0248C99.7875 56.9613 99.7144 56.9256 99.6381 56.9256H98.8529C98.7766 56.9256 98.7035 56.9613 98.6495 57.0248C98.5956 57.0883 98.5653 57.1743 98.5653 57.2641V57.628H98.1108V57.2641C98.1108 57.1743 98.0805 57.0883 98.0266 57.0248C97.9726 56.9613 97.8995 56.9256 97.8232 56.9256H97.038C96.9617 56.9256 96.8886 56.9613 96.8346 57.0248C96.7807 57.0883 96.7504 57.1743 96.7504 57.2641V57.628H96.2974V57.2641C96.2974 57.1743 96.2671 57.0883 96.2131 57.0248C96.1592 56.9613 96.0861 56.9256 96.0098 56.9256H95.2246C95.1483 56.9256 95.0751 56.9613 95.0212 57.0248C94.9673 57.0883 94.937 57.1743 94.937 57.2641V57.628H94.3675C94.2731 57.628 94.1796 57.6499 94.0923 57.6924C94.0051 57.7349 93.9258 57.7973 93.859 57.8758C93.7923 57.9544 93.7393 58.0477 93.7032 58.1504C93.667 58.253 93.6484 58.3631 93.6484 58.4742V59.2815C93.6484 59.3926 93.667 59.5027 93.7032 59.6053C93.7393 59.708 93.7923 59.8013 93.859 59.8799C93.9258 59.9584 94.0051 60.0208 94.0923 60.0633C94.1796 60.1058 94.2731 60.1277 94.3675 60.1277H113.822C114.069 60.1277 114.307 60.0277 114.499 59.8446C114.69 59.6616 114.821 59.4066 114.871 59.1227L114.879 59.1292L127.117 39.7368L127.118 39.7351C127.232 39.5549 127.28 39.329 127.252 39.107C127.225 38.885 127.123 38.6851 126.97 38.5512Z" fill="#3F3D56"/>
<path d="M51.3711 130.335L53.7876 131.79L59.7074 121.513L56.141 119.365L51.3711 130.335Z" fill="#FFB7B7"/>
<path d="M51.1572 129.034L55.9162 131.9L55.9164 131.9C56.7207 132.385 57.3285 133.226 57.6062 134.237C57.8838 135.249 57.8086 136.35 57.397 137.296L57.3466 137.412L49.5547 132.719L51.1572 129.034Z" fill="#2F2E41"/>
<path d="M79.2816 134.315H81.9963L83.2877 121.993H79.2812L79.2816 134.315Z" fill="#FFB7B7"/>
<path d="M78.5898 133.273L83.9358 133.272H83.936C84.8396 133.273 85.7061 133.695 86.345 134.447C86.9839 135.199 87.3429 136.218 87.3429 137.282V137.412L78.59 137.412L78.5898 133.273Z" fill="#2F2E41"/>
<path d="M66.5814 33.8058C66.5814 33.8058 64.7636 32.1668 64.7636 36.1703L64.4766 49.4001L67.6816 61.8981L69.5473 57.8447L68.7819 49.0623L66.5814 33.8058Z" fill="#2F2E41"/>
<path d="M86.028 69.9918C86.028 69.9918 88.1359 82.0729 85.4659 91.9876L83.9903 130.108L78.58 129.612L76.6828 101.332L74.856 87.2742L71.0617 100.091L58.5546 127.214L52.793 121.922C52.793 121.922 59.1778 101.419 63.8947 97.1144L66.2604 65.4053L86.028 69.9918Z" fill="#2F2E41"/>
<path d="M85.0272 13.8756C86.6614 10.3574 85.5627 5.9462 82.5732 4.02297C79.5837 2.09975 75.8354 3.39275 74.2012 6.91096C72.567 10.4292 73.6657 14.8403 76.6552 16.7636C79.6447 18.6868 83.393 17.3938 85.0272 13.8756Z" fill="#FFB7B7"/>
<path d="M79.1796 11.9334C79.9192 12.0466 80.477 11.1562 80.7357 10.3331C80.9944 9.50998 81.1916 8.55171 81.8345 8.10708C82.7129 7.49963 83.8368 8.23023 84.8413 8.02981C85.9757 7.80348 86.7133 6.38863 86.7711 5.03628C86.8289 3.68393 86.3716 2.38325 85.9229 1.13639L85.7662 2.68595C85.7872 2.16077 85.6933 1.63804 85.4935 1.16778C85.2937 0.69751 84.9947 0.29543 84.6252 0L84.8271 2.27374C84.7841 1.96004 84.6889 1.65942 84.547 1.38912C84.4051 1.11883 84.2192 0.88418 84 0.698647C83.7808 0.513114 83.5326 0.380348 83.2697 0.307969C83.0068 0.235591 82.7344 0.225024 82.468 0.276876L82.4998 1.63165C81.1896 1.4483 79.8679 1.26469 78.5538 1.40438C77.2397 1.54406 75.9164 2.03337 74.9204 3.05186C73.4306 4.57537 72.8865 7.084 73.0692 9.39678C73.2518 11.7096 74.0631 13.8822 74.9086 15.9811C75.1213 16.5092 75.4155 17.105 75.9088 17.1723C76.3521 17.2328 76.7576 16.7967 76.8954 16.2973C77.0015 15.7849 76.9974 15.2494 76.8834 14.7393C76.7588 13.9597 76.6016 13.1629 76.7188 12.3817C76.836 11.6006 77.3135 10.8287 77.9827 10.7329C78.6518 10.6372 79.3364 11.5373 79.0147 12.2343L79.1796 11.9334Z" fill="#2F2E41"/>
<path d="M86.4086 73.2229L65.8164 71.6593L67.3664 64.1025L86.187 69.0537L86.4086 73.2229Z" fill="#CBCBCB"/>
<path d="M73.7115 20.2949L75.0031 18.1846C75.0031 18.1846 76.4468 18.7619 80.313 21.0268L80.5862 23.004L87.2973 71.5816L75.0988 70.9623L71.7769 70.8791L70.6899 68.0113L69.3494 70.8183L66.1054 70.7371L62.8047 68.4852L66.0576 56.7754L67.11 46.079L65.4836 36.0018C65.4836 36.0018 63.4369 26.7481 71.3197 21.7586L73.7115 20.2949Z" fill="#2F2E41"/>
<path d="M101.207 57.0685C100.908 57.1579 100.596 57.169 100.294 57.1012C99.9907 57.0335 99.7043 56.8883 99.4543 56.6762C99.2043 56.464 98.9969 56.1899 98.8466 55.8731C98.6964 55.5564 98.607 55.2048 98.5848 54.843L91.3477 52.5617L94.259 49.5195L100.685 52.1523C101.204 52.1486 101.706 52.369 102.096 52.7718C102.486 53.1746 102.737 53.7317 102.801 54.3377C102.866 54.9437 102.739 55.5564 102.445 56.0597C102.151 56.5631 101.711 56.922 101.207 57.0686V57.0685Z" fill="#FFB7B7"/>
<path d="M97.9635 55.781C97.8113 55.8785 97.6434 55.9372 97.4706 55.9534C97.2979 55.9695 97.1242 55.9426 96.9608 55.8746L85.0555 50.5569C82.1511 49.3453 79.7195 46.9333 78.2131 43.7697L73.2484 33.3471C72.8998 32.8891 72.6313 32.3547 72.4584 31.7745C72.2854 31.1943 72.2114 30.5796 72.2406 29.9657C72.2697 29.3518 72.4014 28.7507 72.6282 28.1967C72.8549 27.6428 73.1723 27.1469 73.5621 26.7375C73.9519 26.3281 74.4064 26.0131 74.8998 25.8106C75.3931 25.6082 75.9155 25.5222 76.4371 25.5576C76.9587 25.593 77.4693 25.7491 77.9395 26.0169C78.4098 26.2848 78.8306 26.6592 79.1778 27.1186L87.771 43.1473L98.5853 50.6089C98.7972 50.7726 98.9614 51.0089 99.0555 51.2859C99.1496 51.5629 99.1692 51.8673 99.1115 52.1578L98.5738 54.8397C98.516 55.1272 98.3851 55.3873 98.1986 55.5851C98.127 55.6611 98.0481 55.7268 97.9635 55.781Z" fill="#2F2E41"/>
<path d="M189.799 137.947H0.201058C0.147734 137.947 0.0965942 137.922 0.0588884 137.878C0.0211827 137.833 0 137.773 0 137.71C0 137.647 0.0211827 137.587 0.0588884 137.543C0.0965942 137.499 0.147734 137.474 0.201058 137.474H189.799C189.852 137.474 189.903 137.499 189.941 137.543C189.979 137.587 190 137.647 190 137.71C190 137.773 189.979 137.833 189.941 137.878C189.903 137.922 189.852 137.947 189.799 137.947Z" fill="#CBCBCB"/>
</g>
<defs>
<clipPath id="clip0_2_5592">
<rect width="190" height="138" fill="white"/>
</clipPath>
</defs>
</svg>
