<svg width="90" height="90" viewBox="0 0 90 90" fill="none" xmlns="http://www.w3.org/2000/svg">
<circle cx="45" cy="45" r="44.5" fill="#F2994A" fill-opacity="0.1"/>
<circle cx="45" cy="45" r="36.5" fill="#F2994A"/>
<path d="M35.7388 31.0566L34.2428 32.5505L36.4688 34.7754L37.9626 33.2815L35.7377 31.0566H35.7388ZM55.2622 31.0566L53.0363 33.2815L54.5312 34.7754L56.7561 32.5516L55.2612 31.0566H55.2622ZM45.5 31.7196C45.1494 31.7239 44.7945 31.7441 44.4375 31.7876C44.4269 31.7876 44.4163 31.7855 44.4056 31.7876C40.0961 32.2817 36.6664 35.7635 36.0703 40.0539C35.5943 43.507 37.0181 46.6382 39.3906 48.6548C40.3611 49.4831 41.0176 50.6197 41.25 51.8742V58.2492H43.6725C44.0422 58.8835 44.7169 59.3117 45.5 59.3117C46.2831 59.3117 46.9577 58.8835 47.3275 58.2492H49.75V53.9992H49.8499V52.737C49.8499 51.1793 50.6595 49.609 51.9749 48.3881C53.7344 46.6265 55.0625 44.1243 55.0625 41.2503C55.0625 36.0015 50.7424 31.6708 45.5 31.7196ZM45.5 33.8446C49.6066 33.7873 52.9375 37.149 52.9375 41.2503C52.9375 43.4751 51.9069 45.4344 50.4799 46.8603L50.5139 46.8943C49.0959 48.2019 48.179 49.9636 47.9214 51.8753H43.2741C43.0403 50.0541 42.2594 48.2915 40.7836 47.0271C38.9061 45.4333 37.7873 43.0321 38.1613 40.3206C38.6256 36.9737 41.3414 34.2824 44.6691 33.9137C44.9439 33.8754 45.2206 33.8527 45.4979 33.8457L45.5 33.8446ZM30.625 41.2503V43.3753H33.8125V41.2503H30.625ZM57.1875 41.2503V43.3753H60.375V41.2503H57.1875ZM36.4688 49.8501L34.2439 52.074L35.7388 53.5689L37.9616 51.344L36.4688 49.8501ZM54.5312 49.8501L53.0374 51.344L55.2612 53.5689L56.7561 52.074L54.5312 49.8501ZM43.375 54.0003H47.625V56.1253H43.375V54.0003Z" fill="white"/>
</svg>
