<svg width="90" height="89" viewBox="0 0 90 89" fill="none" xmlns="http://www.w3.org/2000/svg">
<circle cx="45" cy="44.5" r="44.5" fill="#9B51E0" fill-opacity="0.1"/>
<circle cx="45" cy="44.5" r="36.5" fill="#9B51E0"/>
<path d="M54.4154 40.7504C54.416 39.0432 53.9759 37.3647 53.1376 35.8775C52.2993 34.3902 51.0913 33.1446 49.6304 32.2611C48.1695 31.3777 46.5054 30.8863 44.7989 30.8346C43.0925 30.7829 41.4016 31.1727 39.8899 31.9661C38.3783 32.7595 37.0971 33.9298 36.1703 35.3636C35.2436 36.7974 34.7027 38.4461 34.6 40.1502C34.4973 41.8544 34.8363 43.5562 35.5842 45.0909C36.332 46.6256 37.4634 47.9412 38.8689 48.9104L34.582 56.3337L37.778 56.4655L39.4894 59.1671L44.3995 50.6614C44.4335 50.6614 44.4647 50.6671 44.4987 50.6671C44.5327 50.6671 44.5639 50.6628 44.5979 50.6614L49.508 59.1671L51.2534 56.5236L54.4154 56.3337L50.1285 48.9104C51.4511 47.9998 52.5325 46.7811 53.2793 45.3596C54.0261 43.938 54.416 42.3562 54.4154 40.7504ZM37.4154 40.7504C37.4154 39.3494 37.8308 37.98 38.6091 36.8151C39.3874 35.6503 40.4937 34.7424 41.788 34.2063C43.0823 33.6701 44.5066 33.5299 45.8806 33.8032C47.2546 34.0765 48.5168 34.7511 49.5074 35.7417C50.498 36.7323 51.1726 37.9945 51.4459 39.3685C51.7192 40.7425 51.579 42.1668 51.0428 43.4611C50.5067 44.7554 49.5988 45.8616 48.434 46.64C47.2691 47.4183 45.8996 47.8337 44.4987 47.8337C42.6201 47.8337 40.8184 47.0875 39.49 45.7591C38.1616 44.4307 37.4154 42.629 37.4154 40.7504Z" fill="white"/>
<path d="M44.5 45C46.8472 45 48.75 43.0972 48.75 40.75C48.75 38.4028 46.8472 36.5 44.5 36.5C42.1528 36.5 40.25 38.4028 40.25 40.75C40.25 43.0972 42.1528 45 44.5 45Z" fill="white"/>
</svg>
