<svg width="33" height="32" viewBox="0 0 33 32" fill="none" xmlns="http://www.w3.org/2000/svg">
<path d="M16.3638 28.0047C14.6743 26.5682 13.1082 24.9934 11.6819 23.2967C9.54161 20.7487 7 16.954 7 13.338C6.99907 11.4913 7.5478 9.68581 8.57673 8.15005C9.60566 6.61429 11.0685 5.41729 12.7803 4.71054C14.492 4.0038 16.3755 3.81907 18.1926 4.17974C20.0097 4.5404 21.6786 5.43026 22.9881 6.73668C23.8599 7.60182 24.551 8.63073 25.0212 9.76384C25.4915 10.897 25.7316 12.1118 25.7277 13.338C25.7277 16.954 23.1861 20.7487 21.0458 23.2967C19.6195 24.9934 18.0534 26.5682 16.3638 28.0047ZM16.3638 9.33801C15.2995 9.33801 14.2788 9.75944 13.5262 10.5096C12.7736 11.2597 12.3508 12.2771 12.3508 13.338C12.3508 14.3989 12.7736 15.4163 13.5262 16.1664C14.2788 16.9166 15.2995 17.338 16.3638 17.338C17.4282 17.338 18.4489 16.9166 19.2015 16.1664C19.9541 15.4163 20.3769 14.3989 20.3769 13.338C20.3769 12.2771 19.9541 11.2597 19.2015 10.5096C18.4489 9.75944 17.4282 9.33801 16.3638 9.33801Z" fill="white"/>
</svg>
