<svg width="24" height="24" viewBox="0 0 24 24" fill="none" xmlns="http://www.w3.org/2000/svg">
<path d="M1.6888 6.343L10.6888 11.1778C10.9912 11.3398 11.3824 11.4166 11.776 11.4166C12.1696 11.4166 12.5608 11.3398 12.8632 11.1778L21.8632 6.343C22.45 6.0274 23.0044 4.7998 21.928 4.7998H1.6252C0.548802 4.7998 1.1032 6.0274 1.6888 6.343ZM22.1356 8.98661L12.8632 13.819C12.4552 14.0326 12.1696 14.0578 11.776 14.0578C11.3824 14.0578 11.0968 14.0326 10.6888 13.819C10.2808 13.6054 2.1292 9.33221 1.4632 8.9854C0.995202 8.74061 1 9.0274 1 9.24821V17.9998C1 18.5038 1.6792 19.1998 2.2 19.1998H21.4C21.9208 19.1998 22.6 18.5038 22.6 17.9998V9.24941C22.6 9.02861 22.6048 8.74181 22.1356 8.98661Z" fill="white"/>
</svg>
