<svg width="215" height="37" viewBox="0 0 215 37" fill="none" xmlns="http://www.w3.org/2000/svg">
<g clip-path="url(#clip0_293_1647)">
<path d="M133.469 11.1089V13.1773C133.469 13.5626 133.151 13.8717 132.765 13.8572C132.177 13.8346 131.355 13.8057 130.852 13.7975C128.039 13.7975 126.487 15.4725 126.487 18.5155V26.056C126.487 26.4309 126.181 26.7358 125.806 26.7358H123.337C122.962 26.7358 122.658 26.4309 122.658 26.056V10.9152C122.658 10.5402 122.964 10.2353 123.337 10.2353H125.688C126.064 10.2353 126.369 10.5382 126.369 10.9152V11.8794C127.494 10.7154 129.287 10.089 131.504 10.089C131.871 10.089 132.336 10.1405 132.66 10.1859C133.122 10.2497 133.469 10.6453 133.469 11.1089ZM108.217 17.4853C108.083 17.3164 108.1 17.0712 108.254 16.9188L114.326 10.9646C114.599 10.6968 114.409 10.2374 114.027 10.2374H110.494C110.322 10.2374 110.159 10.3012 110.033 10.4166L103.196 16.6818C102.923 16.9332 102.482 16.7395 102.482 16.3687V10.9152C102.482 10.5402 102.176 10.2353 101.801 10.2353H99.3343C98.9587 10.2353 98.6532 10.5382 98.6532 10.9152V26.0539C98.6532 26.4289 98.9587 26.7338 99.3343 26.7338H101.796C102.174 26.7338 102.48 26.4268 102.478 26.0498L102.455 22.5371C102.453 22.3475 102.533 22.1642 102.674 22.0344L104.801 20.0648C104.981 19.8979 105.268 19.9185 105.423 20.1101L110.562 26.4804C110.692 26.6411 110.886 26.7338 111.092 26.7338H114.638C114.993 26.7338 115.191 26.3259 114.972 26.0457L108.217 17.4853ZM88.0738 10.2374H85.6054C85.2298 10.2374 84.9243 10.5402 84.9243 10.9173V26.056C84.9243 26.4309 85.2298 26.7358 85.6054 26.7358H88.0738C88.4494 26.7358 88.7549 26.4309 88.7549 26.056V10.9152C88.7549 10.5402 88.4494 10.2374 88.0738 10.2374ZM176.496 10.2374H161.595C161.222 10.2374 160.914 10.5423 160.914 10.9173V13.1197C160.914 13.4946 161.22 13.7995 161.595 13.7995H166.662C166.897 13.7995 167.087 13.9891 167.087 14.224V26.056C167.087 26.4309 167.393 26.7358 167.768 26.7358H170.323C170.699 26.7358 171.004 26.4309 171.004 26.056V14.2219C171.004 13.987 171.194 13.7975 171.43 13.7975H176.496C176.872 13.7975 177.177 13.4926 177.177 13.1176V10.9152C177.177 10.5402 176.872 10.2374 176.496 10.2374ZM155.761 18.4845C155.761 23.3653 152.163 26.9089 147.206 26.9089C142.232 26.9089 138.622 23.3653 138.622 18.4845C138.622 13.6203 142.232 10.0911 147.206 10.0911C152.163 10.0911 155.761 13.6203 155.761 18.4845ZM151.903 18.4845C151.903 15.5405 150.015 13.5626 147.206 13.5626C144.424 13.5626 142.482 15.5858 142.482 18.4845C142.482 21.3998 144.424 23.4353 147.206 23.4353C149.971 23.4374 151.903 21.3998 151.903 18.4845ZM188.009 10.2374H185.54C185.167 10.2374 184.859 10.5423 184.859 10.9173V26.056C184.859 26.4309 185.165 26.7358 185.54 26.7358H188.009C188.384 26.7358 188.69 26.4309 188.69 26.056V10.9152C188.69 10.5402 188.384 10.2374 188.009 10.2374ZM68.1656 10.0911C65.9408 10.0911 63.9388 10.8575 62.5725 12.2111C62.3889 12.3924 62.1061 12.378 61.9389 12.1843C60.7708 10.8307 58.9752 10.0911 56.8143 10.0911C54.833 10.0911 53.1386 10.6783 51.9704 11.764V10.9152C51.9704 10.5402 51.665 10.2353 51.2893 10.2353H48.9386C48.563 10.2353 48.2575 10.5382 48.2575 10.9152V26.0539C48.2575 26.4289 48.563 26.7338 48.9386 26.7338H51.407C51.7826 26.7338 52.086 26.4289 52.086 26.0539V18.2517C52.086 15.3076 53.5968 13.6203 56.2282 13.6203C58.548 13.6203 59.7244 14.9718 59.7244 17.6378V26.0539C59.7244 26.4289 60.0299 26.7338 60.4055 26.7338H62.8739C63.2495 26.7338 63.555 26.4289 63.555 26.0539V18.2517C63.555 15.3076 65.0636 13.6203 67.6951 13.6203C70.0169 13.6203 71.1934 14.9718 71.1934 17.6378V26.0539C71.1934 26.4289 71.4988 26.7338 71.8744 26.7338H74.3428C74.7185 26.7338 75.0239 26.4289 75.0239 26.0539V17.3184C75.026 12.7262 72.5246 10.0911 68.1656 10.0911ZM214.909 26.0457L208.152 17.4853C208.018 17.3143 208.034 17.0712 208.189 16.9188L214.261 10.9626C214.534 10.6968 214.344 10.2353 213.962 10.2353H210.429C210.259 10.2353 210.094 10.2992 209.968 10.4146L203.131 16.6798C202.858 16.9291 202.417 16.7375 202.417 16.3666V10.9152C202.417 10.5402 202.111 10.2353 201.735 10.2353H199.267C198.891 10.2353 198.586 10.5402 198.586 10.9152V26.0539C198.586 26.4289 198.891 26.7338 199.267 26.7338H201.729C202.107 26.7338 202.412 26.4268 202.41 26.0498L202.388 22.5391C202.388 22.3475 202.466 22.1662 202.606 22.0364L204.736 20.0648C204.916 19.8979 205.203 19.9185 205.358 20.1101L210.497 26.4783C210.627 26.639 210.821 26.7317 211.027 26.7317H214.573C214.93 26.7338 215.128 26.3259 214.909 26.0457ZM34.4399 9.54101C34.3945 9.438 34.347 9.33911 34.2933 9.25052C34.2397 9.16193 34.1757 9.07333 34.1035 8.9868C33.7299 8.52943 33.1211 8.08029 32.343 7.65382L26.0832 4.22969L19.8235 0.801437C19.0454 0.374965 18.3313 0.100952 17.7266 0.0226627C17.611 0.00824099 17.4975 0 17.3902 0C16.7215 0 15.8836 0.294616 14.9548 0.801437L8.6951 4.22763L2.43537 7.65176C1.65729 8.07823 1.04845 8.52531 0.674887 8.98474C0.602651 9.07333 0.538671 9.16192 0.485011 9.24846C0.43135 9.33705 0.383881 9.43594 0.338475 9.53895C0.107321 10.0767 0 10.7978 0 11.6486V25.3493C0 26.365 0.150663 27.1994 0.485011 27.7495C0.819358 28.2996 1.50663 28.8394 2.43537 29.3462L8.6951 32.7724L14.9548 36.1965C15.7329 36.6209 16.447 36.897 17.0517 36.9753C17.1673 36.9897 17.2808 37 17.3881 37C17.4955 37 17.609 36.9918 17.7246 36.9753C18.3293 36.897 19.0434 36.623 19.8215 36.1965L32.3409 29.3462C33.2676 28.8394 33.9569 28.2996 34.2913 27.7495C34.3449 27.6609 34.3924 27.562 34.4378 27.459C34.669 26.9233 34.7763 26.2002 34.7763 25.3493V11.6486C34.7784 10.7978 34.671 10.0767 34.4399 9.54101ZM10.0263 25.6151C10.0263 25.9262 9.69196 26.126 9.41746 25.9756L7.17816 24.7498C6.65187 24.4613 6.32371 23.9092 6.32371 23.3097V16.688C6.32371 16.3769 6.65806 16.1791 6.93255 16.3275L9.60114 17.7861C9.86532 17.9303 10.0284 18.2064 10.0284 18.5072V25.6151H10.0263ZM28.4546 23.3097C28.4546 23.9092 28.1265 24.4634 27.6002 24.7518L25.3609 25.9756C25.0864 26.126 24.752 25.9282 24.752 25.6151V16.8425C24.752 16.5314 24.4177 16.3316 24.1432 16.482L20.098 18.6947C19.5717 18.9831 19.2436 19.5353 19.2436 20.1348V28.8373C19.2436 29.1381 19.0805 29.4142 18.8163 29.5584L18.1807 29.9045C17.6874 30.1744 17.0909 30.1744 16.5977 29.9045L15.9661 29.5584C15.702 29.4142 15.5389 29.1381 15.5389 28.8373V20.1369C15.5389 19.5373 15.2108 18.9852 14.6845 18.6968L6.32371 14.123V13.6903C6.32371 13.0908 6.65187 12.5387 7.17816 12.2502L8.10071 11.7434C8.59397 11.4735 9.19043 11.4735 9.68164 11.7434L16.5977 15.526C17.0909 15.7959 17.6874 15.7959 18.1786 15.526L21.3735 13.7769C21.6583 13.6203 21.6583 13.2124 21.3735 13.0558L14.1953 9.12896C13.9105 8.97238 13.9105 8.56445 14.1953 8.40787L16.5977 7.09344C17.0909 6.82354 17.6874 6.82354 18.1807 7.09344L27.6002 12.2461C28.1285 12.5346 28.4567 13.0867 28.4567 13.6883V23.3097H28.4546Z" fill="#293239"/>
</g>
<defs>
<clipPath id="clip0_293_1647">
<rect width="215" height="37" fill="white"/>
</clipPath>
</defs>
</svg>
