<svg width="64" height="64" viewBox="0 0 64 64" fill="none" xmlns="http://www.w3.org/2000/svg">
<g clip-path="url(#clip0_2_5751)">
<path d="M23.8899 0C19.4906 0 15.8899 3.60064 15.8899 8C15.8899 12.3994 19.4906 16 23.8899 16C24.7322 16 25.545 15.8669 26.3091 15.6224L30.5178 24.5677C25.3178 27.8438 22.6035 34.2464 24.2752 40.4845C24.5682 41.5757 24.9891 42.6285 25.529 43.6211L14.169 50.9197L14.1677 50.919C12.697 49.1392 10.4749 48 8 48C3.60064 48 0 51.6006 0 56C0 60.3994 3.60064 64 8 64C12.3994 64 16 60.3994 16 56C16 54.9907 15.8029 54.0262 15.4573 53.1347L26.9466 45.7536C30.4141 50.0717 36.2291 52.1888 41.911 50.6662C49.5782 48.6118 54.1478 40.697 52.0934 33.0298C51.4659 30.6786 50.2489 28.5265 48.5574 26.777L54.8787 18.5798C55.7283 18.9867 56.658 19.1986 57.6 19.2C61.1155 19.2 64 16.3155 64 12.8C64 9.28448 61.1155 6.4 57.6 6.4C54.0845 6.4 51.2 9.28448 51.2 12.8C51.2 14.425 51.8208 15.9098 52.8314 17.0426L46.6189 25.0976C43.2269 22.649 38.8026 21.6832 34.4576 22.8474C33.8867 23.001 33.335 23.1898 32.8 23.4048L28.5888 14.4538C30.583 12.9946 31.8899 10.6458 31.8899 8C31.8899 3.60064 28.2893 0 23.8899 0ZM23.8899 3.2C26.56 3.2 28.6899 5.32992 28.6899 8C28.6899 10.6701 26.56 12.8 23.8899 12.8C23.2587 12.8032 22.6331 12.6813 22.0492 12.4412C21.4654 12.2011 20.935 11.8477 20.4886 11.4013C20.0423 10.9549 19.6888 10.4245 19.4487 9.84069C19.2087 9.25687 19.0867 8.63125 19.0899 8C19.0899 5.32992 21.2198 3.2 23.8899 3.2ZM57.6 9.6C59.3862 9.6 60.8 11.0138 60.8 12.8C60.8 14.5862 59.3862 16 57.6 16C55.8138 16 54.4 14.5862 54.4 12.8C54.4 11.0138 55.8138 9.6 57.6 9.6ZM38.6899 23.9648C44.1325 24.1805 49.0419 27.8842 50.5389 33.4125C50.5425 33.423 50.5457 33.4337 50.5485 33.4445C50.5517 33.4571 50.5543 33.47 50.5562 33.4829C52.3603 40.2944 48.3091 47.296 41.4976 49.1206C34.6733 50.9491 27.6499 46.8947 25.8214 40.071C23.993 33.2467 28.0486 26.2214 34.8723 24.393C36.116 24.0584 37.403 23.9139 38.6899 23.9642V23.9648ZM37.1923 24.7686C37.0271 24.7825 36.8622 24.7996 36.6976 24.8198C36.6829 24.8557 36.7603 24.9062 37.0061 24.9715L37.2826 24.9888C37.5891 24.8646 37.4234 24.793 37.193 24.7686H37.1923ZM39.5987 24.809C39.4112 24.9075 39.1123 25.0138 38.809 25.0822C38.9754 25.6774 39.6672 27.1987 40.4973 26.6662C40.3456 26.745 41.1981 27.2314 40.88 27.4362C41.0285 28.7322 39.4618 26.9242 38.9562 27.0886C38.2246 27.4234 39.2378 27.559 39.0112 27.8182C38.4531 28.6362 39.9808 28.9267 39.591 27.9085C39.9059 28.729 40.185 28.6259 40.8576 28.3987C39.3651 29.0816 41.961 29.0362 41.3062 29.7536C40.5037 29.8912 40.1434 30.3008 40.791 30.9485C40.7738 31.7146 41.4835 31.5578 41.7894 31.7389L42.0461 31.6435L42.2099 31.5763C42.2035 31.577 42.1971 31.5808 42.1901 31.5814C43.0861 31.0195 42.0582 29.2006 43.1328 29.0502C43.1168 29.8637 44.512 30.2605 43.5738 29.3376C42.985 28.8998 45.1066 29.3555 44.3578 29.849C45.4394 30.6899 44.3296 28.7994 45.0739 29.1949C45.6416 29.7651 45.9603 29.1418 46.0589 29.0886C46.2957 28.9485 46.7123 28.9574 46.8301 28.9901C48.0614 29.6634 46.0474 29.7869 46.2112 30.5101C46.4378 30.9402 45.1296 30.6688 44.9235 30.5901C44.0531 29.3638 43.2672 31.0304 42.48 31.4765C42.2658 31.7587 42.0542 32.0429 41.8451 32.329C41.9667 33.575 41.2013 34.5574 41.1686 35.8598C41.2838 36.5766 41.7741 37.479 41.879 38.2573C42.3629 39.1622 43.424 39.4694 44.3462 39.7293C45.0483 39.9539 45.4739 39.0477 46.1165 38.8666C46.4582 37.8861 47.5245 38.2528 48.0173 38.055C47.6781 39.1373 48.8934 39.577 48.871 40.6547C48.5658 41.3331 48.6355 42.1062 48.5702 42.8352C49.3762 41.4619 49.9007 39.9419 50.1131 38.3638C50.3255 36.7857 50.2216 35.181 49.8074 33.6435C48.4941 28.743 44.345 25.3696 39.5987 24.809ZM35.705 25.0688C35.4662 25.0868 35.2284 25.1167 34.9926 25.1584C29.9379 26.5498 26.5242 30.9632 26.1811 35.9213C26.2662 35.7549 26.3866 35.6518 26.5523 35.6614C27.12 35.3619 27.1731 36.3654 27.3811 36.9402C27.8893 37.0131 27.161 35.1507 28.096 34.8525C28.5428 33.9702 29.1092 33.1537 29.7792 32.4262C30.1434 32.5619 30.793 32.3597 31.1789 31.7376C30.5734 31.776 30.4147 31.3485 31.136 30.9696C32.2176 30.1171 30.7392 31.6928 31.7798 31.5853C32.9485 31.6141 31.6928 30.5997 32.0742 29.9686C31.4381 29.7466 31.9194 28.0922 31.1488 28.9766C31.4112 28.6566 30.7891 28.3558 31.0336 28.1075C31.2442 28.4115 31.9718 28.7117 31.9789 27.879C32.6106 27.8202 32.2912 26.9683 32.4909 26.4102C33.8784 25.4598 33.0093 27.2838 33.1488 28.0358C34.0269 29.3414 34.3245 27.1277 35.1872 26.8435C36.2624 26.5946 35.8675 25.6096 35.7056 25.0688H35.705ZM40.1082 25.4534C40.3706 25.7056 39.9059 25.4995 40.0211 25.4586C40.0498 25.4515 40.0795 25.4498 40.1088 25.4534H40.1082ZM40.1453 25.8138C40.1926 25.8054 40.3136 25.8182 40.5453 25.8662C41.0957 26.2752 39.9373 25.8496 40.1453 25.8138ZM41.1264 26.1536C41.296 26.1075 41.8522 26.2765 41.8426 26.6253C41.4822 27.1194 41.6429 26.864 41.4426 26.4762C41.0618 26.2867 41.024 26.1818 41.1264 26.1536ZM36.7501 26.5715C36.6157 26.568 36.4817 26.5852 36.3526 26.6227C36.1338 26.6912 35.9955 26.8288 36.1498 27.0451C36.3123 27.1347 36.5082 27.1136 36.6797 27.0688C37.4458 26.7584 37.1488 26.5786 36.7501 26.5715ZM39.0093 26.7187C38.992 26.7187 39.0003 26.7539 39.0611 26.8538C39.3325 27.0349 39.0592 26.7194 39.0086 26.7187H39.0093ZM38.2138 26.7398C38.2016 26.7494 38.1971 26.777 38.2074 26.8326C38.4595 26.9978 38.265 26.6989 38.2138 26.7398ZM44.5926 27.2435C44.6349 27.2269 44.7379 27.2653 44.9261 27.3926C45.0221 27.0643 46.0832 27.4822 45.3466 27.8061C45.3562 28.423 44.4096 27.3165 44.5926 27.2435ZM31.344 27.4624C31.4278 27.511 31.2333 27.9206 30.88 28.0813C30.4422 28.7021 30.752 27.9379 30.9651 27.7702C31.12 27.5808 31.2269 27.4906 31.2902 27.465C31.3139 27.4554 31.3318 27.4554 31.344 27.4624ZM30.105 28.2675C30.5466 28.183 30.3558 29.3184 29.8874 29.4976C29.623 29.5424 29.5552 29.9968 29.3914 30.1837C29.3958 30.2784 29.0349 28.7853 29.6934 28.5472C29.8675 28.3712 30.0032 28.2874 30.105 28.2675ZM43.4778 28.5402C43.6224 28.5261 44.2509 28.6912 44.5261 28.8486C44.7392 29.111 44.0269 28.7322 43.92 28.7974C43.5328 28.6432 43.417 28.5683 43.4528 28.5466C43.4606 28.5428 43.4691 28.5406 43.4778 28.5402ZM45.2698 28.6573C45.289 28.6426 45.3594 28.6611 45.5174 28.7462C45.6211 29.0426 45.2134 28.7021 45.2698 28.6573ZM46.1626 29.3126C46.1414 29.3069 46.1189 29.3083 46.0986 29.3165C46.0448 29.3382 46.0032 29.4163 46.0077 29.5885C46.4666 29.6736 46.3155 29.3504 46.1626 29.3126ZM42.8826 29.911C42.8333 29.9328 42.7789 30.0429 42.7354 30.3085C43.1277 30.5779 43.0298 29.8458 42.8826 29.9117V29.911ZM30.5011 30.9235C30.5318 30.9158 30.5882 30.928 30.6803 30.9773C30.5523 31.1411 30.4096 30.9472 30.5011 30.9235ZM28.1274 31.2474C28.1619 31.2422 28.2202 31.2698 28.313 31.351C28.2835 31.8995 27.9776 31.2691 28.1274 31.2474ZM28.3085 31.856C28.3238 31.8483 28.3437 31.8541 28.3686 31.879C28.32 32.6195 28.2022 31.911 28.3085 31.856ZM37.2474 32.4237C37.1859 32.4346 37.1085 32.4826 37.0285 32.5952C37.4778 32.6931 37.4323 32.391 37.2474 32.4237ZM37.8426 32.464C37.8157 32.4608 37.7709 32.4915 37.7062 32.5837C37.8496 32.7757 37.9238 32.4717 37.8426 32.464ZM28.2138 32.6368C28.2432 32.6342 28.2733 32.6573 28.297 32.7226C27.9578 33.1245 28.0851 32.6445 28.2138 32.6362V32.6368ZM40.176 33.1923C40.1708 33.1898 40.165 33.1885 40.1592 33.1888C40.1534 33.189 40.1477 33.1907 40.1427 33.1936C40.1203 33.2064 40.0954 33.2403 40.071 33.3114C40.263 33.4957 40.2477 33.2275 40.176 33.1923ZM41.1776 33.8938C41.1264 33.9072 41.0957 34.0154 41.1475 34.3027C41.5008 34.2931 41.2896 33.8637 41.1776 33.8938ZM40.6624 34.3027C40.5709 34.3026 40.4799 34.316 40.3923 34.3424C40.2496 34.3898 40.1728 34.4806 40.3219 34.6253L40.3712 34.6336L40.6176 34.5677C41.1629 34.4013 40.9408 34.2989 40.6624 34.3027ZM27.7664 36.624C27.744 36.6304 27.7446 36.6899 27.801 36.848C28.1197 37.0701 27.8336 36.6048 27.7664 36.624ZM27.7408 37.0675C27.7178 37.0694 27.7018 37.1456 27.7101 37.3574C27.952 37.7171 27.8125 37.0605 27.7414 37.0675H27.7408ZM27.1066 37.4611C26.6131 37.5405 27.7229 38.1504 27.8573 38.5152C28.8109 38.5165 27.8707 39.0592 28.704 39.1616C29.945 39.2653 29.0016 38.5427 28.4698 38.48C28.5773 38.1274 27.8509 38.0832 27.4227 37.4624C27.3177 37.4498 27.2116 37.4493 27.1066 37.4611ZM26.601 37.5866C26.5478 37.5731 26.4627 37.6806 26.3251 37.9834C26.2704 37.9224 26.2271 37.8522 26.1971 37.776C26.2355 38.2176 26.2976 38.6624 26.3866 39.1066C26.7424 39.7754 27.0701 40.5747 27.5437 41.12C27.952 41.8342 27.8426 40.8269 28.055 41.4189C28.5331 42.5165 28.151 43.8816 29.3037 44.7488C30.0077 45.7459 31.1123 46.281 31.9981 47.0765C33.394 47.9151 34.9455 48.4618 36.5587 48.6835C36.7571 48.375 36.8147 47.9776 37.1398 47.7811C38.8467 47.7389 37.6179 45.9443 38.5862 45.2038C38.9574 43.6723 36.5722 44.0826 35.6115 43.8189C34.1491 43.9827 33.8227 42.2381 32.4474 42.2099C31.3581 42.3232 31.3344 40.7155 30.5901 41.001C29.9616 41.3018 29.4547 40.4614 29.104 40.6253C29.04 40.7424 28.4787 40.1389 28.2861 41.0221C27.088 41.0752 27.5315 39.5642 26.8589 38.9651C26.6432 38.7552 26.7616 37.6262 26.601 37.5866ZM28.1453 37.6026C28.1417 37.6024 28.1382 37.6031 28.1349 37.6044C28.1316 37.6057 28.1286 37.6077 28.1261 37.6102C28.105 37.6339 28.1248 37.7133 28.2438 37.8701L28.3098 37.8925C28.3123 37.7158 28.1978 37.6019 28.1453 37.6026ZM40.2035 38.0134C40.1754 38.0218 40.1434 38.0518 40.1114 38.1178C40.3802 38.3642 40.3264 37.9789 40.2035 38.0134ZM39.4989 38.039C39.4349 38.0486 39.4477 38.0966 39.6627 38.2138C40.1434 38.1818 39.6384 38.0173 39.4989 38.039ZM40.2374 38.359C40.2181 38.3562 40.1984 38.3596 40.1811 38.3686C40.1395 38.3878 40.0858 38.4326 40.0198 38.5178C40.2758 38.679 40.345 38.3814 40.2374 38.359ZM39.8739 38.5011C39.8496 38.505 39.824 38.5491 39.8035 38.665C39.9955 38.8378 39.945 38.4902 39.8739 38.5011ZM27.7037 38.7085C27.6352 38.7123 27.6461 38.7898 27.8726 39.0112C28.3923 39.0496 27.8547 38.7002 27.7037 38.7085ZM47.7178 38.8685C47.6934 38.8723 47.6666 38.9152 47.6461 39.031C47.8381 39.2038 47.7888 38.8576 47.7178 38.8685ZM29.593 38.9626C29.5689 38.9578 29.5441 38.96 29.5213 38.969C29.4637 38.992 29.4278 39.0688 29.4573 39.2365C29.9866 39.3037 29.7702 38.9939 29.5923 38.9626H29.593ZM30.631 39.6378C30.6048 39.6346 30.608 39.7491 30.679 40.0787L30.7366 40.2547C31.0675 40.7187 30.711 39.6467 30.631 39.6378ZM8 51.2C10.6701 51.2 12.8 53.3299 12.8 56C12.8 58.6701 10.6701 60.8 8 60.8C7.36875 60.8032 6.74313 60.6813 6.15931 60.4412C5.5755 60.2011 5.04507 59.8477 4.5987 59.4013C4.15234 58.9549 3.79889 58.4245 3.55881 57.8407C3.31873 57.2569 3.19678 56.6312 3.2 56C3.2 53.3299 5.32992 51.2 8 51.2Z" fill="#9B51E0"/>
</g>
<defs>
<clipPath id="clip0_2_5751">
<rect width="64" height="64" fill="white"/>
</clipPath>
</defs>
</svg>
