<svg width="175" height="138" viewBox="0 0 175 138" fill="none" xmlns="http://www.w3.org/2000/svg">
<g clip-path="url(#clip0_2_5631)">
<path d="M42.014 74.7381C40.6173 67.2631 42.8162 58.759 48.9279 54.2344C48.5815 62.4966 51.1688 70.6151 56.2319 77.1534C58.1937 79.6679 60.6375 82.2603 60.5616 85.4487C60.5144 87.4325 59.4415 89.2807 58.0276 90.673C56.6136 92.0654 54.8719 93.0692 53.151 94.0575L52.8831 94.4742C47.8385 88.784 43.4106 82.2131 42.014 74.7381Z" fill="#F0F0F0"/>
<path d="M49.0402 54.3484C46.4724 60.0951 45.7807 66.5048 47.0632 72.667C47.3158 73.9985 47.7766 75.2818 48.4288 76.4698C49.1015 77.6065 50.0663 78.5423 51.223 79.1801C52.2896 79.7963 53.4519 80.3032 54.3501 81.168C54.8033 81.6175 55.1563 82.1578 55.3861 82.7533C55.6158 83.3488 55.7171 83.9862 55.6833 84.6236C55.6403 86.214 55.0283 87.6941 54.3797 89.1208C53.6594 90.7048 52.8862 92.3386 52.9329 94.1195C52.9386 94.3353 52.6034 94.3315 52.5978 94.116C52.5165 91.0176 54.7565 88.5292 55.2557 85.5562C55.4886 84.1689 55.3048 82.7031 54.3295 81.6277C53.4766 80.6874 52.2785 80.1637 51.1931 79.549C50.0556 78.9434 49.0837 78.0685 48.3623 77.0007C47.6517 75.8498 47.1422 74.5863 46.8555 73.2645C46.1627 70.2988 45.9405 67.2426 46.197 64.2078C46.4706 60.7427 47.3349 57.3499 48.7525 54.1762C48.8404 53.9798 49.1274 54.1533 49.0401 54.3484L49.0402 54.3484Z" fill="white"/>
<path d="M46.5323 70.7077C45.4692 70.7826 44.4141 70.4771 43.5555 69.8458C42.6968 69.2145 42.0905 68.2986 41.8449 67.2616C41.7959 67.0516 42.1199 66.9656 42.169 67.1758C42.3959 68.1419 42.9608 68.9951 43.7615 69.5813C44.5623 70.1675 45.5462 70.4482 46.5358 70.3726C46.7508 70.3564 46.7461 70.6917 46.5323 70.7077Z" fill="white"/>
<path d="M50.6422 78.9395C52.0854 77.3075 52.8604 75.1915 52.8128 73.0135C52.8079 72.7977 53.143 72.8015 53.1479 73.017C53.1933 75.2836 52.3823 77.484 50.8767 79.179C50.7331 79.3404 50.4994 79.1001 50.6422 78.9395V78.9395Z" fill="white"/>
<path d="M46.8607 60.9515C47.2781 61.0082 47.703 60.9604 48.0974 60.8124C48.4917 60.6643 48.8431 60.4207 49.12 60.1033C49.2615 59.9401 49.495 60.1806 49.3545 60.3427C49.0469 60.692 48.6585 60.9606 48.2232 61.1251C47.7879 61.2897 47.3189 61.3451 46.8572 61.2866C46.8132 61.2847 46.7716 61.2662 46.7408 61.2347C46.71 61.2033 46.6924 61.1613 46.6914 61.1173C46.6921 61.0729 46.7103 61.0306 46.742 60.9996C46.7737 60.9685 46.8164 60.9512 46.8607 60.9515H46.8607Z" fill="white"/>
<path d="M73.9222 60.4173C73.8367 60.5217 73.7513 60.6261 73.6665 60.7333C72.525 62.143 71.4998 63.6432 70.6012 65.2189C70.5297 65.3397 70.4592 65.4631 70.3914 65.5856C68.2669 69.4051 66.8699 73.5858 66.2715 77.9152C66.035 79.6382 65.9299 81.3767 65.9572 83.1156C65.9949 85.5172 66.2269 88.118 65.4908 90.3268C65.4166 90.5581 65.3281 90.7846 65.2259 91.0049L53.4131 94.7686C53.382 94.7637 53.3515 94.7615 53.3203 94.7566L52.8555 94.9284C52.8478 94.8389 52.8418 94.7458 52.8341 94.6562C52.8295 94.6042 52.8274 94.5514 52.8228 94.4995C52.8205 94.4646 52.8183 94.4296 52.8143 94.3983C52.8135 94.3867 52.8128 94.375 52.8129 94.3661C52.8088 94.3347 52.8084 94.3052 52.8052 94.2765C52.7701 93.7563 52.7375 93.2352 52.7106 92.7124C52.7097 92.7097 52.7097 92.7098 52.7115 92.7062C52.5087 88.7245 52.6366 84.6908 53.3727 80.8047C53.3948 80.6878 53.416 80.5683 53.4436 80.4496C53.7851 78.6998 54.2691 76.9809 54.8906 75.3099C55.2339 74.396 55.6232 73.5001 56.0571 72.6256C57.1825 70.3682 58.656 68.3018 60.4235 66.5023C63.9476 62.9154 68.5796 60.4956 73.5429 60.4194C73.6699 60.4175 73.7943 60.4164 73.9222 60.4173Z" fill="#F0F0F0"/>
<path d="M73.9436 60.5757C68.4335 63.6182 64.0222 68.3195 61.3361 74.0118C60.7361 75.227 60.3314 76.5291 60.1369 77.8703C59.9896 79.1829 60.1965 80.511 60.7361 81.7166C61.2167 82.8508 61.8396 83.9554 62.036 85.1866C62.1272 85.8184 62.0839 86.4623 61.9088 87.0761C61.7337 87.6899 61.4308 88.2598 61.02 88.7484C60.0281 89.9923 58.6484 90.8057 57.2716 91.5542C55.7428 92.3853 54.1417 93.2244 53.1068 94.6744C52.9814 94.8501 52.7161 94.6453 52.8414 94.4698C54.6419 91.947 57.9286 91.3088 60.1171 89.2356C61.1383 88.2681 61.8742 86.9871 61.7428 85.5413C61.628 84.277 60.9867 83.1374 60.4902 81.9932C59.9465 80.8249 59.6973 79.5411 59.7641 78.2542C59.8897 76.9074 60.2436 75.5919 60.8106 74.3638C62.0429 71.5787 63.7055 69.0048 65.7375 66.7362C68.0421 64.1341 70.7749 61.9456 73.8176 60.2651C74.006 60.1612 74.1307 60.4725 73.9436 60.5757Z" fill="white"/>
<path d="M62.0933 72.1277C61.1994 71.5474 60.5409 70.6683 60.2354 69.6473C59.9299 68.6263 59.9973 67.5299 60.4255 66.554C60.5128 66.3569 60.8233 66.4833 60.7359 66.6807C60.3355 67.5887 60.2728 68.61 60.5592 69.5602C60.8457 70.5103 61.4623 71.3268 62.2979 71.8623C62.4793 71.9788 62.2737 72.2436 62.0933 72.1277H62.0933Z" fill="white"/>
<path d="M60.4159 81.1733C62.5507 80.7391 64.4435 79.5163 65.7168 77.7485C65.8428 77.5733 66.1081 77.7781 65.9823 77.9531C64.6538 79.7902 62.6815 81.0587 60.4589 81.5056C60.2471 81.5481 60.2052 81.2155 60.4159 81.1733V81.1733Z" fill="white"/>
<path d="M68.2287 64.5365C68.5277 64.8331 68.8958 65.0508 69.2998 65.17C69.7038 65.2892 70.131 65.3062 70.5432 65.2194C70.7544 65.1743 70.7961 65.507 70.5863 65.5518C70.1304 65.6455 69.6586 65.6262 69.2119 65.4954C68.7653 65.3647 68.3575 65.1266 68.0241 64.8019C67.9901 64.774 67.968 64.7341 67.9624 64.6904C67.9567 64.6468 67.9679 64.6026 67.9936 64.5669C68.0209 64.5319 68.0609 64.5091 68.1049 64.5033C68.1489 64.4976 68.1934 64.5095 68.2287 64.5365V64.5365Z" fill="white"/>
<path d="M92.4763 19.5413C92.5159 19.7152 92.5417 19.8921 92.5535 20.0701L106.404 28.0602L109.77 26.1222L113.359 30.8205L107.733 34.8305C107.278 35.1545 106.731 35.3223 106.173 35.3087C105.615 35.2951 105.076 35.1008 104.638 34.7551L90.3562 23.4881C89.7116 23.7267 89.0098 23.7634 88.3438 23.5933C87.6779 23.4232 87.0796 23.0545 86.6284 22.536C86.1772 22.0176 85.8945 21.3741 85.8179 20.6911C85.7414 20.0081 85.8746 19.318 86.1998 18.7125C86.5251 18.1071 87.0269 17.615 87.6386 17.3017C88.2504 16.9885 88.943 16.8688 89.6243 16.9588C90.3057 17.0488 90.9435 17.3441 91.453 17.8054C91.9624 18.2667 92.3194 18.8722 92.4763 19.5413V19.5413Z" fill="#FFB6B6"/>
<path d="M106.595 27.1787C106.639 26.9749 106.727 26.783 106.852 26.616C106.976 26.4491 107.136 26.311 107.319 26.2113L113.713 22.7273C114.565 22.0846 115.636 21.8058 116.693 21.9521C117.75 22.0984 118.706 22.6579 119.35 23.5077C119.995 24.3576 120.277 25.4285 120.133 26.4856C119.99 27.5427 119.433 28.4998 118.585 29.1469L113.46 34.3532C113.314 34.5018 113.137 34.6171 112.942 34.6913C112.747 34.7655 112.539 34.7968 112.331 34.7831C112.123 34.7694 111.92 34.711 111.737 34.612C111.553 34.5129 111.393 34.3755 111.268 34.209L106.855 28.3588C106.729 28.1923 106.641 28.0008 106.596 27.7971C106.552 27.5935 106.551 27.3825 106.595 27.1787Z" fill="#3F3D56"/>
<path d="M118.02 6.92324C118.94 3.99118 121.032 1.30199 123.926 0.310797C126.819 -0.680398 131.056 0.829515 133.232 2.99747C137.211 6.9631 138.182 20.5865 135.448 24.8916C134.904 24.8628 133.028 24.8415 132.477 24.8209L131.699 22.2261V24.7953C127.403 24.6626 122.931 24.7457 118.457 24.8316C118.056 21.7836 117.1 9.85531 118.02 6.92324Z" fill="#2F2E41"/>
<path d="M116.79 129.996H112.872L111.008 114.884L116.79 114.884L116.79 129.996Z" fill="#FFB6B6"/>
<path d="M151.087 127.559L147.295 128.547L141.68 114.394L147.275 112.936L151.087 127.559Z" fill="#FFB6B6"/>
<path d="M129.496 37.1782L130.384 39.4863L130.207 41.7945L112.832 47.8124L113.694 37.7108L115.647 35.4023L129.496 37.1782Z" fill="#FFB6B6"/>
<path d="M124.002 16.4062C127.43 16.4062 130.208 13.6279 130.208 10.2007C130.208 6.77343 127.43 3.99512 124.002 3.99512C120.575 3.99512 117.797 6.77343 117.797 10.2007C117.797 13.6279 120.575 16.4062 124.002 16.4062Z" fill="#FFB7B7"/>
<path d="M119.737 2.11967C120.93 1.39277 122.296 0.999555 123.692 0.981146C125.088 0.962738 126.464 1.31981 127.675 2.01503C128.886 2.71024 129.888 3.71807 130.576 4.93313C131.265 6.14819 131.614 7.52585 131.588 8.92207C128.205 9.78663 124.6 10.1483 120.78 9.13029L119.907 6.99319L119.392 9.13187C118.224 9.95395 117.096 9.95247 116.008 9.12743C115.962 7.73515 116.282 6.35517 116.937 5.12541C117.591 3.89565 118.557 2.8592 119.737 2.11967Z" fill="#2F2E41"/>
<path d="M118.544 137.435H115.763L115.267 134.81L113.996 137.435H106.622C106.269 137.435 105.925 137.322 105.64 137.113C105.355 136.903 105.145 136.608 105.04 136.271C104.935 135.934 104.94 135.571 105.055 135.237C105.171 134.903 105.39 134.615 105.681 134.414L111.569 130.347V127.693L117.763 128.063L118.544 137.435Z" fill="#2F2E41"/>
<path d="M155.002 134.227L152.312 134.928L151.169 132.513L150.602 135.374L143.466 137.234C143.124 137.323 142.763 137.3 142.434 137.169C142.106 137.039 141.828 136.806 141.641 136.506C141.454 136.206 141.368 135.854 141.396 135.502C141.423 135.149 141.562 134.815 141.793 134.547L146.465 129.127L145.796 126.559L151.882 125.354L155.002 134.227Z" fill="#2F2E41"/>
<path d="M150.605 118.056L139.121 94.4516L135.516 65.7223C138.001 61.1059 133.385 51.7125 133.385 51.7125V47.7686L115.502 51.1422V51.1422C111.845 61.1182 110.071 71.6866 110.271 82.3101L110.992 120.499H110.766C110.391 120.499 110.031 120.648 109.766 120.914C109.501 121.179 109.352 121.539 109.352 121.914C109.352 122.289 109.501 122.649 109.766 122.914C110.031 123.179 110.391 123.328 110.766 123.328H117.837C118.213 123.328 118.572 123.179 118.838 122.914C119.103 122.649 119.252 122.289 119.252 121.914C119.252 121.539 119.103 121.179 118.838 120.914C118.572 120.648 118.213 120.499 117.837 120.499H117.655L122.732 71.9159L128.634 95.8906L142.899 117.965C142.535 117.993 142.196 118.162 141.954 118.434C141.712 118.707 141.584 119.063 141.599 119.428C141.614 119.793 141.769 120.138 142.033 120.39C142.296 120.643 142.647 120.783 143.012 120.782H150.084C150.413 120.783 150.731 120.668 150.985 120.459C151.239 120.249 151.411 119.958 151.473 119.635C151.535 119.312 151.482 118.977 151.323 118.689C151.165 118.401 150.911 118.177 150.605 118.056H150.605Z" fill="#2F2E41"/>
<path d="M135.002 54.1301H135.002C134.943 53.8993 134.813 53.6931 134.63 53.5409C134.446 53.3887 134.22 53.2984 133.982 53.283C133.746 50.5881 132.189 33.3048 132.13 32.7978L132.127 32.7763L131.676 23.1427C131.66 22.7928 131.515 22.4612 131.27 22.2113C131.025 21.9613 130.696 21.8105 130.346 21.7877L127.964 21.632C127.932 21.6309 127.901 21.6171 127.878 21.5936C127.855 21.5701 127.843 21.5387 127.843 21.506C127.843 21.243 127.791 20.9825 127.69 20.7395C127.589 20.4964 127.442 20.2756 127.256 20.0896C127.07 19.9036 126.849 19.7561 126.606 19.6554C126.363 19.5547 126.103 19.5029 125.84 19.5029H118.787C118.331 19.5031 117.89 19.67 117.547 19.9723C117.205 20.2745 116.984 20.6914 116.927 21.1446C116.924 21.1758 116.91 21.2047 116.886 21.2255C116.863 21.2462 116.832 21.2574 116.801 21.2567L116.8 21.2566C115.999 21.2401 115.218 21.5114 114.599 22.0213C113.981 22.5312 113.566 23.2458 113.429 24.0356C112.465 29.645 110.533 42.3763 111.488 49.4542C111.821 51.9181 111.67 55.6239 111.544 57.6855C111.532 57.8847 111.559 58.0844 111.623 58.2732C111.688 58.462 111.79 58.6361 111.922 58.7857C111.641 58.8668 111.402 59.0539 111.256 59.3076C111.11 59.5612 111.068 59.8617 111.139 60.1456H111.139C111.213 60.4366 111.399 60.6865 111.656 60.8404C111.914 60.9942 112.222 61.0395 112.513 60.9661L134.181 55.5038C134.472 55.4305 134.722 55.2445 134.876 54.9869C135.03 54.7293 135.075 54.4211 135.002 54.1301Z" fill="#3F3D56"/>
<path d="M99.1909 94.6319C99.1869 93.9993 98.9589 93.3886 98.5475 92.908C98.1361 92.4274 97.5678 92.1081 96.9434 92.0066L58.5266 85.6981C58.1582 85.6371 57.7812 85.6538 57.4196 85.7472L48.4164 88.0752L43.2506 89.4125L33.7174 91.8769C33.1419 92.0263 32.6323 92.3626 32.2685 92.8328C31.9047 93.3031 31.7072 93.8808 31.707 94.4754V134.731C31.7099 135.344 31.922 135.939 32.3082 136.416C32.6944 136.893 33.2318 137.224 33.8315 137.354L72.9617 136.911C73.1454 136.95 73.3329 136.97 73.5208 136.969C73.7946 136.969 74.0668 136.928 74.3281 136.846L97.5763 137.424C98.1249 137.253 98.6038 136.91 98.9417 136.445C99.2797 135.98 99.4588 135.418 99.4525 134.844L99.1909 94.6319Z" fill="white"/>
<path d="M99.1909 94.6319C99.1869 93.9993 98.9589 93.3886 98.5475 92.908C98.1361 92.4274 97.5678 92.1081 96.9434 92.0066L58.5266 85.6981C58.1582 85.6371 57.7812 85.6538 57.4196 85.7472L48.4164 88.0752L43.2506 89.4125L33.7174 91.8769C33.1419 92.0263 32.6323 92.3626 32.2685 92.8328C31.9047 93.3031 31.7072 93.8808 31.707 94.4754V134.731C31.7099 135.344 31.922 135.939 32.3082 136.416C32.6944 136.893 33.2318 137.224 33.8315 137.354L72.9617 136.911C73.1454 136.95 73.3329 136.97 73.5208 136.969C73.7946 136.969 74.0668 136.928 74.3281 136.846L97.5763 137.424C98.1249 137.253 98.6038 136.91 98.9417 136.445C99.2797 135.98 99.4588 135.418 99.4525 134.844L99.1909 94.6319ZM97.375 136.785L74.1268 137.338C73.7951 137.441 73.4426 137.458 73.1026 137.387L33.9701 136.699C33.5205 136.601 33.1177 136.352 32.8283 135.995C32.5388 135.637 32.3799 135.191 32.3779 134.731V94.4754C32.3782 94.0633 32.5049 93.6612 32.7408 93.3233C32.9767 92.9854 33.3105 92.728 33.6973 92.5857C33.7587 92.5627 33.8215 92.5433 33.8852 92.5276L43.9707 89.9201L49.9348 88.3771L57.5873 86.398C57.7515 86.3542 57.9206 86.3324 58.0905 86.3331C58.1999 86.3331 58.3091 86.3421 58.417 86.36L96.8338 92.6685C97.143 92.7192 97.4361 92.8412 97.6899 93.0248C97.9438 93.2084 98.1514 93.4485 98.2964 93.7263C98.4415 94.0078 98.5181 94.3196 98.52 94.6364L98.7816 134.848C98.7865 135.279 98.6523 135.701 98.3989 136.049C98.1455 136.398 97.7865 136.656 97.375 136.785Z" fill="#CCCCCC"/>
<path d="M98.2981 93.7259C98.272 93.743 98.2433 93.7558 98.2131 93.7639L86.9132 96.8186L83.3956 97.769L73.3905 100.473C73.362 100.48 73.3327 100.483 73.3033 100.484C73.2831 100.484 73.263 100.482 73.2429 100.479L32.9007 93.1243L32.7665 93.0997C32.6791 93.0833 32.6018 93.0329 32.5514 92.9597C32.501 92.8864 32.4817 92.7961 32.4977 92.7087C32.5136 92.6212 32.5636 92.5436 32.6366 92.4928C32.7096 92.4421 32.7997 92.4223 32.8873 92.4378L33.699 92.5853L73.2899 99.804L81.913 97.4739L86.7366 96.1701L97.862 93.1623L98.0387 93.1154C98.115 93.0952 98.1961 93.1026 98.2676 93.1361C98.3391 93.1696 98.3966 93.2272 98.43 93.2987C98.4387 93.3158 98.4454 93.3338 98.4501 93.3524C98.4686 93.4227 98.4637 93.4971 98.4363 93.5645C98.4089 93.6318 98.3604 93.6884 98.2981 93.7259Z" fill="#CCCCCC"/>
<path d="M73.6357 137.046C73.4519 137.046 73.302 136.898 73.3003 137.845L72.9649 101.282C72.9631 99.9658 73.112 99.8142 73.2972 99.8125H73.3003C73.4842 99.8125 73.634 99.9606 73.6357 101.276L73.9712 137.839C73.9729 136.893 73.824 137.045 73.6388 137.046H73.6357Z" fill="#CCCCCC"/>
<path d="M87.006 137.471L83.3932 137.51L81.9106 97.4742L44.0797 89.9469C44.0426 89.9404 44.006 89.9314 43.9701 89.9201C43.6795 89.8374 43.4256 89.6584 43.25 89.4125L48.4158 88.0752L49.9342 88.3771L85.8308 95.5175C86.0195 95.5548 86.198 95.6324 86.3539 95.7451C86.5099 95.8578 86.6396 96.0029 86.7342 96.1705C86.846 96.365 87.0037 137.239 87.006 137.471Z" fill="#CCCCCC"/>
<path d="M115.945 21.3529C115.942 20.8761 115.771 20.4158 115.46 20.0537C115.15 19.6915 114.722 19.4508 114.252 19.3743L85.2986 14.6199C85.021 14.5739 84.7368 14.5865 84.4643 14.6569L77.679 16.4114L73.7858 17.4193L66.6011 19.2765C66.1674 19.3892 65.7833 19.6426 65.5091 19.997C65.2349 20.3514 65.0861 20.7868 65.0859 21.2349V44.9649C65.0881 45.4274 65.2479 45.8754 65.539 46.2348C65.8301 46.5942 66.2351 46.8436 66.687 46.9419L96.1776 53.2165C96.3161 53.2463 96.4574 53.261 96.599 53.2603C96.8053 53.2607 97.0105 53.2295 97.2074 53.1676L114.729 47.6346C115.142 47.5055 115.503 47.2466 115.758 46.8963C116.012 46.5459 116.147 46.1228 116.143 45.6897L115.945 21.3529Z" fill="white"/>
<path d="M84.9706 16.3623C84.9495 16.3623 84.9285 16.365 84.908 16.3704L67.0447 20.99C66.9905 21.004 66.9425 21.0356 66.9083 21.0799C66.8741 21.1241 66.8555 21.1785 66.8555 21.2344V44.9641C66.8557 45.0218 66.8756 45.0778 66.912 45.1228C66.9483 45.1677 66.9989 45.1988 67.0554 45.2111L96.546 51.4857C96.5887 51.4946 96.633 51.4925 96.6747 51.4794L114.196 45.9465C114.248 45.9304 114.293 45.898 114.325 45.8543C114.356 45.8105 114.373 45.7576 114.372 45.7036L114.176 21.3669C114.176 21.3074 114.154 21.2499 114.115 21.2047C114.077 21.1595 114.023 21.1294 113.964 21.1199L85.0115 16.3656C84.998 16.3634 84.9843 16.3623 84.9706 16.3623Z" fill="#0077B5"/>
<path d="M115.945 21.3529C115.942 20.8761 115.771 20.4158 115.46 20.0537C115.15 19.6915 114.722 19.4508 114.252 19.3743L85.2986 14.6199C85.021 14.5739 84.7368 14.5865 84.4643 14.6569L77.679 16.4114L73.7858 17.4193L66.6011 19.2765C66.1674 19.3892 65.7833 19.6426 65.5091 19.997C65.2349 20.3514 65.0861 20.7868 65.0859 21.2349V44.9649C65.0881 45.4274 65.2479 45.8754 65.539 46.2348C65.8301 46.5942 66.2351 46.8436 66.687 46.9419L96.1776 53.2165C96.3161 53.2463 96.4574 53.261 96.599 53.2603C96.8053 53.2607 97.0105 53.2295 97.2074 53.1676L114.729 47.6346C115.142 47.5055 115.503 47.2466 115.758 46.8963C116.012 46.5459 116.147 46.1228 116.143 45.6897L115.945 21.3529ZM114.577 47.1525L97.0557 52.6856C96.8058 52.7635 96.5401 52.7762 96.2838 52.7227L66.7915 46.4481C66.4526 46.3742 66.1491 46.187 65.931 45.9174C65.7128 45.6477 65.5931 45.3118 65.5915 44.9649V21.235C65.5918 20.9244 65.6872 20.6213 65.865 20.3667C66.0428 20.112 66.2944 19.918 66.5859 19.8108C66.6322 19.7934 66.6795 19.7788 66.7275 19.767L74.3285 17.8019L78.8234 16.6389L84.5907 15.1474C84.7144 15.1144 84.8419 15.0979 84.9699 15.0985C85.0524 15.0985 85.1347 15.1052 85.216 15.1187L114.169 19.8732C114.402 19.9114 114.623 20.0033 114.814 20.1417C115.005 20.2801 115.162 20.4611 115.271 20.6704C115.381 20.8826 115.438 21.1176 115.44 21.3563L115.637 45.693C115.641 46.0179 115.539 46.3354 115.348 46.5983C115.158 46.8612 114.887 47.0555 114.577 47.1526V47.1525Z" fill="#3F3D56"/>
<path d="M115.271 20.671C115.251 20.6839 115.23 20.6936 115.207 20.6996L106.691 23.0018L104.04 23.7181L96.4992 25.7557C96.4777 25.761 96.4556 25.7639 96.4335 25.7642C96.4182 25.7639 96.403 25.7628 96.3879 25.7608L65.9839 20.2176L65.8827 20.1991C65.8168 20.1868 65.7585 20.1488 65.7205 20.0936C65.6825 20.0383 65.6679 19.9703 65.6799 19.9043C65.6919 19.8384 65.7296 19.7799 65.7847 19.7416C65.8397 19.7033 65.9077 19.6885 65.9738 19.7002L66.5855 19.8114L96.4233 25.2518L102.922 23.4957L106.557 22.5131L114.942 20.2463L115.075 20.2109C115.133 20.1957 115.194 20.2012 115.248 20.2265C115.302 20.2517 115.345 20.2951 115.37 20.3491C115.377 20.362 115.382 20.3755 115.385 20.3895C115.399 20.4425 115.396 20.4986 115.375 20.5493C115.354 20.6001 115.318 20.6428 115.271 20.671Z" fill="#3F3D56"/>
<path d="M96.6853 53.3202C96.6187 53.3202 96.5547 53.2939 96.5074 53.247C96.46 53.2001 96.4331 53.1363 96.4325 53.0697L96.1797 25.5139C96.1791 25.4469 96.2051 25.3823 96.2521 25.3345C96.2991 25.2866 96.3631 25.2594 96.4302 25.2588H96.4325C96.4992 25.2588 96.5631 25.2851 96.6104 25.332C96.6578 25.3789 96.6847 25.4426 96.6853 25.5093L96.9381 53.0651C96.9387 53.1321 96.9126 53.1967 96.8657 53.2445C96.8187 53.2924 96.7546 53.3196 96.6876 53.3202H96.6853Z" fill="#3F3D56"/>
<path d="M106.69 49.9678L104.039 50.6841L102.922 23.4957L74.4105 17.8228C74.3825 17.8178 74.3549 17.811 74.3279 17.8025C74.1089 17.7402 73.9175 17.6053 73.7852 17.4199L77.6784 16.4121L78.8227 16.6396L105.876 22.021C106.019 22.0491 106.153 22.1076 106.271 22.1926C106.388 22.2775 106.486 22.3869 106.557 22.5131C106.641 22.6598 106.689 49.7926 106.69 49.9678Z" fill="#3F3D56"/>
<path d="M105.501 34.4665C105.636 34.5825 105.762 34.7089 105.878 34.8448L121.76 32.99L123.304 29.4258L128.988 31.0538L126.867 37.6292C126.695 38.1604 126.356 38.6217 125.901 38.9438C125.445 39.2659 124.897 39.4314 124.339 39.4156L106.155 38.8986C105.78 39.4747 105.239 39.9231 104.603 40.1841C103.967 40.445 103.267 40.5062 102.596 40.3596C101.924 40.2129 101.313 39.8652 100.844 39.3629C100.375 38.8606 100.07 38.2273 99.9699 37.5474C99.8695 36.8675 99.9785 36.1731 100.282 35.5567C100.586 34.9403 101.071 34.4309 101.671 34.0965C102.271 33.762 102.959 33.6183 103.644 33.6844C104.328 33.7505 104.975 34.0233 105.501 34.4665Z" fill="#FFB6B6"/>
<path d="M121.388 32.1672C121.302 31.9774 121.257 31.7712 121.258 31.5628C121.258 31.3543 121.304 31.1483 121.391 30.9591L124.443 24.3473C124.742 23.3235 125.436 22.4604 126.371 21.9472C127.306 21.4339 128.407 21.3125 129.432 21.6095C130.456 21.9065 131.321 22.5977 131.837 23.5315C132.353 24.4654 132.477 25.5656 132.183 26.591L131.178 33.8271C131.149 34.0336 131.076 34.2315 130.964 34.4073C130.852 34.5831 130.703 34.7327 130.528 34.8459C130.353 34.959 130.156 35.0331 129.95 35.0631C129.743 35.0931 129.533 35.0783 129.333 35.0197L122.301 32.9589C122.101 32.9004 121.916 32.7993 121.758 32.6627C121.6 32.5261 121.474 32.357 121.388 32.1672Z" fill="#3F3D56"/>
<path d="M174.662 137.766H0.335821C0.246666 137.766 0.161247 137.731 0.0982957 137.667C0.0353442 137.604 0 137.519 0 137.43C0 137.34 0.0353442 137.255 0.0982957 137.192C0.161247 137.129 0.246666 137.093 0.335821 137.093H174.662C174.752 137.093 174.837 137.128 174.9 137.191C174.964 137.255 174.999 137.34 174.999 137.43C174.999 137.519 174.964 137.605 174.9 137.668C174.837 137.731 174.752 137.766 174.662 137.766Z" fill="#CACACA"/>
<path d="M33.9772 101.979C39.5717 101.979 44.1068 97.4437 44.1068 91.8493C44.1068 86.2549 39.5717 81.7197 33.9772 81.7197C28.3828 81.7197 23.8477 86.2549 23.8477 91.8493C23.8477 97.4437 28.3828 101.979 33.9772 101.979Z" fill="#0077B5"/>
<path d="M32.5933 97.1213C32.4184 97.1213 32.2458 97.0806 32.0894 97.0023C31.933 96.9241 31.7969 96.8104 31.692 96.6705L28.9285 92.9857C28.7492 92.7467 28.6722 92.4462 28.7145 92.1503C28.7567 91.8545 28.9148 91.5876 29.1539 91.4083C29.3929 91.229 29.6934 91.152 29.9893 91.1943C30.2851 91.2366 30.552 91.3946 30.7313 91.6337L32.5393 94.0442L37.1828 87.0789C37.2647 86.9553 37.3702 86.849 37.4932 86.7662C37.6162 86.6834 37.7543 86.6257 37.8996 86.5964C38.045 86.5671 38.1947 86.5668 38.3402 86.5955C38.4856 86.6241 38.624 86.6812 38.7474 86.7635C38.8707 86.8457 38.9767 86.9515 39.0591 87.0748C39.1415 87.198 39.1988 87.3363 39.2276 87.4818C39.2565 87.6272 39.2563 87.7769 39.2272 87.9223C39.1981 88.0677 39.1406 88.2059 39.0579 88.329L33.5309 96.6195C33.431 96.7694 33.2965 96.8932 33.1388 96.9805C32.9811 97.0677 32.8048 97.1159 32.6246 97.1209C32.6142 97.1211 32.6037 97.1213 32.5933 97.1213Z" fill="white"/>
<path d="M77.1069 38.0455C77.0753 38.0454 77.0439 38.0419 77.0132 38.035L68.2445 36.0549C68.1348 36.0301 68.0395 35.9627 67.9795 35.8676C67.9195 35.7725 67.8997 35.6574 67.9245 35.5478C67.9492 35.4381 68.0165 35.3427 68.1115 35.2826C68.2065 35.2224 68.3215 35.2025 68.4312 35.2271L77.1999 37.2071C77.3017 37.2301 77.3915 37.2898 77.4521 37.3748C77.5126 37.4598 77.5397 37.5642 77.5282 37.6679C77.5167 37.7716 77.4673 37.8675 77.3896 37.9371C77.3119 38.0068 77.2112 38.0454 77.1069 38.0455Z" fill="white"/>
<path d="M43.3578 117.737C43.327 117.744 43.2955 117.747 43.264 117.746L34.2758 117.595C34.1634 117.593 34.0565 117.546 33.9784 117.465C33.9004 117.384 33.8576 117.276 33.8594 117.163C33.8613 117.051 33.9077 116.944 33.9884 116.866C34.0691 116.788 34.1775 116.745 34.2899 116.746L43.2781 116.897C43.3825 116.899 43.4825 116.939 43.5591 117.01C43.6357 117.081 43.6835 117.178 43.6934 117.282C43.7033 117.386 43.6745 117.49 43.6126 117.574C43.5507 117.658 43.46 117.716 43.3578 117.737Z" fill="#E6E6E6"/>
<path d="M46.4711 122.547C46.4403 122.553 46.4088 122.556 46.3773 122.556L37.3891 122.404C37.2767 122.402 37.1698 122.356 37.0917 122.275C37.0136 122.194 36.9708 122.085 36.9727 121.973C36.9746 121.861 37.021 121.754 37.1017 121.675C37.1824 121.597 37.2908 121.554 37.4032 121.556L46.3914 121.707C46.4958 121.709 46.5958 121.749 46.6724 121.82C46.749 121.891 46.7968 121.987 46.8067 122.091C46.8165 122.195 46.7878 122.299 46.7259 122.383C46.664 122.467 46.5733 122.525 46.4711 122.547Z" fill="#E6E6E6"/>
</g>
<defs>
<clipPath id="clip0_2_5631">
<rect width="175" height="137.846" fill="white"/>
</clipPath>
</defs>
</svg>
