<svg width="90" height="90" viewBox="0 0 90 90" fill="none" xmlns="http://www.w3.org/2000/svg">
<circle cx="45" cy="45" r="36.5" fill="#0077B5"/>
<circle cx="45" cy="45" r="44.5" fill="#0077B5" fill-opacity="0.1"/>
<path d="M58.0246 35.0305C57.3011 34.3066 56.442 33.7323 55.4964 33.3405C54.5508 32.9487 53.5373 32.7471 52.5138 32.7471C51.4903 32.7471 50.4768 32.9487 49.5312 33.3405C48.5857 33.7323 47.7265 34.3066 47.003 35.0305L45.5013 36.5322L43.9996 35.0305C42.5381 33.5689 40.5558 32.7478 38.4888 32.7478C36.4218 32.7478 34.4395 33.5689 32.978 35.0305C31.5164 36.4921 30.6953 38.4744 30.6953 40.5413C30.6953 42.6083 31.5164 44.5906 32.978 46.0522L34.4796 47.5538L45.5013 58.5755L56.523 47.5538L58.0246 46.0522C58.7486 45.3286 59.3228 44.4695 59.7146 43.5239C60.1064 42.5783 60.3081 41.5648 60.3081 40.5413C60.3081 39.5178 60.1064 38.5043 59.7146 37.5587C59.3228 36.6132 58.7486 35.7541 58.0246 35.0305V35.0305Z" stroke="white" stroke-width="2" stroke-linecap="round" stroke-linejoin="round"/>
</svg>
