<svg width="64" height="64" viewBox="0 0 64 64" fill="none" xmlns="http://www.w3.org/2000/svg">
<path d="M8 16C8 13.8783 8.84285 11.8434 10.3431 10.3431C11.8434 8.84285 13.8783 8 16 8H48C50.1217 8 52.1566 8.84285 53.6569 10.3431C55.1571 11.8434 56 13.8783 56 16V40C56 42.1217 55.1571 44.1566 53.6569 45.6569C52.1566 47.1571 50.1217 48 48 48H38V50C38 50.5304 38.2107 51.0391 38.5858 51.4142C38.9609 51.7893 39.4696 52 40 52H42C42.5304 52 43.0391 52.2107 43.4142 52.5858C43.7893 52.9609 44 53.4696 44 54C44 54.5304 43.7893 55.0391 43.4142 55.4142C43.0391 55.7893 42.5304 56 42 56H20C19.4696 56 18.9609 55.7893 18.5858 55.4142C18.2107 55.0391 18 54.5304 18 54C18 53.4696 18.2107 52.9609 18.5858 52.5858C18.9609 52.2107 19.4696 52 20 52H22C22.5304 52 23.0391 51.7893 23.4142 51.4142C23.7893 51.0391 24 50.5304 24 50V48H16C13.8783 48 11.8434 47.1571 10.3431 45.6569C8.84285 44.1566 8 42.1217 8 40V16ZM12 40C12 41.0609 12.4214 42.0783 13.1716 42.8284C13.9217 43.5786 14.9391 44 16 44H48C49.0609 44 50.0783 43.5786 50.8284 42.8284C51.5786 42.0783 52 41.0609 52 40H12ZM52 36V16C52 14.9391 51.5786 13.9217 50.8284 13.1716C50.0783 12.4214 49.0609 12 48 12H16C14.9391 12 13.9217 12.4214 13.1716 13.1716C12.4214 13.9217 12 14.9391 12 16V36H52ZM34 50V48H28V50C28 50.7 27.88 51.376 27.66 52H34.34C34.1138 51.3575 33.9988 50.6811 34 50Z" fill="#F2994A"/>
</svg>
