<svg width="90" height="90" viewBox="0 0 90 90" fill="none" xmlns="http://www.w3.org/2000/svg">
<circle cx="45" cy="45" r="44.5" fill="#219653" fill-opacity="0.1"/>
<circle cx="45" cy="46" r="36.5" fill="#27AE60"/>
<g clip-path="url(#clip0_777_17)">
<path d="M28.5 50.5783C29.6471 50.5232 30.6178 50.0792 31.4119 49.2465C32.2061 48.4137 32.6032 47.4238 32.6032 46.2766C32.6032 47.4238 33.0002 48.4137 33.7944 49.2465C34.5886 50.0792 35.5592 50.5232 36.7063 50.5783C35.5592 50.6335 34.5886 51.0775 33.7944 51.9102C33.0002 52.743 32.6032 53.7329 32.6032 54.88C32.6032 53.7329 32.2061 52.743 31.4119 51.9102C30.6178 51.0775 29.6471 50.6335 28.5 50.5783ZM32.6032 37.8718C34.8312 37.7615 36.7201 36.8984 38.2698 35.2825C39.8195 33.6666 40.5944 31.7391 40.5944 29.5C40.5944 31.7391 41.372 33.6666 42.9273 35.2825C44.4825 36.8984 46.3741 37.7615 48.6022 37.8718C47.1352 37.938 45.7895 38.3543 44.5652 39.1209C43.3409 39.8875 42.373 40.9023 41.6616 42.1652C40.9501 43.4281 40.5944 44.7986 40.5944 46.2766C40.5944 44.0265 39.8195 42.0908 38.2698 40.4693C36.7201 38.8479 34.8312 37.9821 32.6032 37.8718ZM38.4601 56.882C40.1367 56.8048 41.5595 56.1568 42.7287 54.938C43.8979 53.7191 44.4825 52.2659 44.4825 50.5783C44.4825 52.2659 45.0643 53.7191 46.228 54.938C47.3916 56.1568 48.8118 56.8048 50.4883 56.882C48.8118 56.9592 47.3916 57.6072 46.228 58.826C45.0643 60.0449 44.4825 61.4981 44.4825 63.1856C44.4825 61.4981 43.8979 60.0449 42.7287 58.826C41.5595 57.6072 40.1367 56.9592 38.4601 56.882ZM50.4883 48.5102C52.1649 48.433 53.5822 47.7878 54.7404 46.5745C55.8985 45.3612 56.4776 43.9052 56.4776 42.2066C56.4776 43.8942 57.0622 45.3474 58.2314 46.5662C59.4006 47.785 60.8234 48.433 62.5 48.5102C60.8234 48.5874 59.4006 49.2327 58.2314 50.446C57.0622 51.6593 56.4776 53.1097 56.4776 54.7973C56.4776 53.1097 55.8985 51.6593 54.7404 50.446C53.5822 49.2327 52.1649 48.5874 50.4883 48.5102Z" fill="white"/>
</g>
<defs>
<clipPath id="clip0_777_17">
<rect width="34" height="33.6856" fill="white" transform="translate(28.5 29.5)"/>
</clipPath>
</defs>
</svg>
