<svg width="181" height="123" viewBox="0 0 181 123" fill="none" xmlns="http://www.w3.org/2000/svg">
<g clip-path="url(#clip0_2_5676)">
<path d="M98.795 34.2536C107.999 34.2536 115.461 28.3781 115.461 21.1302C115.461 13.8824 107.999 8.00684 98.795 8.00684C89.5906 8.00684 82.1289 13.8824 82.1289 21.1302C82.1289 28.3781 89.5906 34.2536 98.795 34.2536Z" fill="#A0616A"/>
<path d="M86.3576 27.6924C86.3576 27.6924 89.4976 46.3314 84.6668 48.4235C79.8361 50.5156 113.41 50.7059 113.41 50.7059C113.41 50.7059 105.922 34.5394 109.304 29.5943L86.3576 27.6924Z" fill="#A0616A"/>
<path d="M137.925 50.7998L135.133 60.8115L129.229 81.9931L129.052 83.1531L127.014 96.5824L125.659 105.504L124.75 111.496C119.225 113.733 115.22 115.276 115.22 115.276C115.22 115.276 114.876 113.916 114.32 112.176C110.443 113.092 103.267 114.611 97.1864 114.914C99.4007 116.857 100.418 118.683 99.0381 120.031C94.8725 124.092 77.6751 115.583 71.6601 112.41C71.5201 113.17 71.467 113.938 71.5015 114.705L66.8984 111.918L67.354 105.504L68.1223 94.6515L69.0878 81.0419C68.7833 80.4592 68.5282 79.8612 68.324 79.252C66.9143 75.3044 65.2032 67.4217 63.8909 60.8115C62.8348 55.4915 62.0416 50.9961 61.8738 50.0395C61.8512 49.9146 61.8398 49.8504 61.8398 49.8504L87.3209 40.9844C89.1317 44.2913 97.5876 45.2853 97.5876 45.2853C104.593 44.9052 110.084 41.9963 110.084 41.9963L137.925 50.7998Z" fill="#D0CDE1"/>
<path d="M117.155 111.473C117.155 111.473 116.076 111.764 114.322 112.176C110.444 113.092 103.268 114.611 97.1878 114.914C91.9524 115.178 87.5284 114.543 86.7193 111.853C86.3726 110.697 86.8644 109.746 87.9364 108.964C91.1365 106.628 99.495 105.791 106.124 105.504C107.996 105.423 109.728 105.386 111.169 105.372C113.617 105.347 115.221 105.386 115.221 105.386L115.26 105.504L117.155 111.473Z" fill="#A0616A"/>
<path d="M84.9314 8.71729L81.8153 7.73494C81.8153 7.73494 88.3309 2.08648 97.3961 2.57767L94.8464 0.367385C94.8464 0.367385 101.079 -1.59728 106.744 3.55999C109.723 6.27105 113.169 9.45777 115.317 13.0476H118.654L117.261 15.4625L122.136 17.8774L117.133 17.4436C117.431 18.766 117.477 20.1161 117.269 21.4492C117.054 22.7827 116.19 23.9983 114.858 24.8396C114.858 24.8396 110.994 18.5407 110.994 17.5583V20.0142C110.994 20.0142 107.878 17.8039 107.878 16.3304L106.178 18.0495L105.328 15.3481L94.8465 18.0495L96.5461 15.8393L90.0306 16.576L92.5802 13.8746C92.5802 13.8746 85.2148 17.0672 84.9314 19.7686C84.6482 22.47 82.4923 25.0298 82.4923 25.0298C82.4923 25.0298 76.7161 12.401 84.9314 8.71729Z" fill="#2F2E41"/>
<path d="M156.041 96.8279C154.343 98.277 150.137 100.46 145.037 102.822C143.14 103.7 141.121 104.605 139.061 105.505C134.145 107.652 128.998 109.779 124.751 111.497C119.225 113.734 115.221 115.277 115.221 115.277C115.221 115.277 114.876 113.917 114.321 112.177C113.577 109.848 112.458 106.838 111.291 105.505C111.25 105.458 111.209 105.416 111.168 105.373C110.828 105.021 110.486 104.816 110.148 104.816L127.015 96.5834L134.304 93.0249L129.052 83.1542L122.466 70.7725L126.442 60.8125L130.437 50.8008H137.925C137.925 50.8008 140.405 55.0625 143.575 61.0052C144.049 61.894 144.539 62.8202 145.037 63.7768C151.56 76.2691 159.692 93.7137 156.041 96.8279Z" fill="#D0CDE1"/>
<path d="M99.0379 120.031C94.8723 124.093 77.6749 115.584 71.6599 112.411C70.35 111.72 69.5703 111.283 69.5703 111.283L75.0731 105.504L76.816 103.675C76.816 103.675 78.3752 104.326 80.6801 105.386C80.764 105.426 80.8479 105.465 80.934 105.504C82.9216 106.423 85.4169 107.624 87.9349 108.964C91.4092 110.815 94.9221 112.926 97.1863 114.914C99.4005 116.858 100.418 118.683 99.0379 120.031Z" fill="#A0616A"/>
<path d="M80.6814 105.386C80.0663 105.385 79.4522 105.424 78.8456 105.504C73.6352 106.209 72.0986 109.923 71.6612 112.411C71.5211 113.17 71.468 113.939 71.5025 114.706L66.8995 111.918L65.2224 110.903C61.1859 109.794 57.5892 107.826 54.4706 105.504C51.7652 103.454 49.3384 101.188 47.2295 98.7423C45.1289 96.3316 43.2564 93.8025 41.627 91.1755C41.1723 90.4424 40.9279 89.6396 40.9111 88.8239C40.8942 88.0082 41.1054 87.1995 41.5295 86.4552L47.2295 76.4524L55.5607 61.8328C55.6219 61.4848 55.6892 61.1445 55.7624 60.812C57.4146 53.3523 61.8409 50.04 61.8409 50.04H65.2223L67.4842 60.812L70.2945 74.1949L68.325 79.2525L63.7741 90.9328L68.1233 94.6519L80.6814 105.386Z" fill="#D0CDE1"/>
<path d="M84.5093 74.2057L87.4001 76.8614C88.4741 76.7001 89.5956 76.5107 90.7508 76.2979L89.9205 74.2057L91.9506 76.0707C104.189 73.7006 119.357 69.0926 119.357 69.0926C119.357 69.0926 102.981 70.0382 90.7536 67.9347C85.3436 67.004 79.7774 69.1157 77.5573 73.1105C76.2669 75.4324 76.4696 77.444 81.0462 77.444C82.5926 77.4232 84.1347 77.309 85.6589 77.1024L84.5093 74.2057Z" fill="#6C63FF"/>
<path d="M150.41 117.853V118.937C150.411 119.234 150.341 119.529 150.204 119.806C150.143 119.929 150.07 120.049 149.984 120.163C149.714 120.52 149.331 120.815 148.872 121.02C148.413 121.226 147.894 121.333 147.367 121.333H46.161C45.6332 121.333 45.1145 121.226 44.6556 121.02C44.1967 120.815 43.8134 120.52 43.5433 120.163C43.4578 120.049 43.3843 119.929 43.3234 119.806C43.1864 119.529 43.1164 119.234 43.1172 118.937V117.853C43.1171 117.539 43.1957 117.227 43.3487 116.936C43.5016 116.645 43.7258 116.381 44.0085 116.158C44.2911 115.936 44.6267 115.759 44.996 115.639C45.3654 115.518 45.7612 115.456 46.161 115.457H51.9946V114.952C51.9946 114.938 51.9979 114.925 52.0042 114.913C52.0106 114.901 52.02 114.89 52.0318 114.881C52.0435 114.872 52.0575 114.864 52.073 114.859C52.0884 114.854 52.1049 114.852 52.1216 114.852H55.1653C55.182 114.852 55.1985 114.854 55.2139 114.859C55.2293 114.864 55.2433 114.872 55.2551 114.881C55.2669 114.89 55.2763 114.901 55.2826 114.913C55.289 114.925 55.2923 114.938 55.2922 114.952V115.457H57.1937V114.952C57.1937 114.938 57.197 114.925 57.2033 114.913C57.2097 114.901 57.219 114.89 57.2308 114.881C57.2426 114.872 57.2566 114.864 57.272 114.859C57.2875 114.854 57.304 114.852 57.3206 114.852H60.3644C60.3811 114.852 60.3976 114.854 60.413 114.859C60.4284 114.864 60.4424 114.872 60.4542 114.881C60.466 114.89 60.4754 114.901 60.4817 114.913C60.4881 114.925 60.4914 114.938 60.4913 114.952V115.457H62.3951V114.952C62.3951 114.938 62.3983 114.925 62.4047 114.913C62.4111 114.901 62.4204 114.89 62.4322 114.881C62.444 114.872 62.458 114.864 62.4734 114.859C62.4888 114.854 62.5053 114.852 62.522 114.852H65.5658C65.5824 114.852 65.599 114.854 65.6144 114.859C65.6298 114.864 65.6438 114.872 65.6556 114.881C65.6674 114.89 65.6767 114.901 65.6831 114.913C65.6895 114.925 65.6927 114.938 65.6927 114.952V115.457H67.5942V114.952C67.5942 114.938 67.5974 114.925 67.6038 114.913C67.6102 114.901 67.6195 114.89 67.6313 114.881C67.6431 114.872 67.6571 114.864 67.6725 114.859C67.6879 114.854 67.7044 114.852 67.7211 114.852H70.7649C70.7815 114.852 70.7981 114.854 70.8135 114.859C70.8289 114.864 70.8429 114.872 70.8547 114.881C70.8665 114.89 70.8758 114.901 70.8822 114.913C70.8886 114.925 70.8918 114.938 70.8918 114.952V115.457H72.7933V114.952C72.7933 114.938 72.7965 114.925 72.8029 114.913C72.8093 114.901 72.8186 114.89 72.8304 114.881C72.8422 114.872 72.8562 114.864 72.8716 114.859C72.887 114.854 72.9035 114.852 72.9202 114.852H75.964C75.9806 114.852 75.9972 114.854 76.0126 114.859C76.028 114.864 76.042 114.872 76.0538 114.881C76.0656 114.89 76.0749 114.901 76.0813 114.913C76.0877 114.925 76.0909 114.938 76.0909 114.952V115.457H77.9947V114.952C77.9946 114.938 77.9979 114.925 78.0043 114.913C78.0106 114.901 78.02 114.89 78.0318 114.881C78.0436 114.872 78.0576 114.864 78.073 114.859C78.0884 114.854 78.1049 114.852 78.1216 114.852H81.1653C81.182 114.852 81.1985 114.854 81.2139 114.859C81.2293 114.864 81.2433 114.872 81.2551 114.881C81.2669 114.89 81.2763 114.901 81.2826 114.913C81.289 114.925 81.2923 114.938 81.2922 114.952V115.457H83.1938V114.952C83.1937 114.938 83.197 114.925 83.2034 114.913C83.2097 114.901 83.2191 114.89 83.2309 114.881C83.2427 114.872 83.2566 114.864 83.2721 114.859C83.2875 114.854 83.304 114.852 83.3207 114.852H107.163C107.18 114.852 107.196 114.854 107.212 114.859C107.227 114.864 107.241 114.872 107.253 114.881C107.265 114.89 107.274 114.901 107.28 114.913C107.287 114.925 107.29 114.938 107.29 114.952V115.457H109.194V114.952C109.194 114.938 109.197 114.925 109.203 114.913C109.21 114.901 109.219 114.89 109.231 114.881C109.243 114.872 109.257 114.864 109.272 114.859C109.287 114.854 109.304 114.852 109.321 114.852H112.364C112.398 114.852 112.43 114.862 112.454 114.881C112.478 114.9 112.491 114.925 112.491 114.952V115.457H114.393V114.952C114.393 114.938 114.396 114.925 114.402 114.913C114.409 114.901 114.418 114.89 114.43 114.881C114.442 114.872 114.456 114.864 114.471 114.859C114.487 114.854 114.503 114.852 114.52 114.852H117.564C117.58 114.852 117.597 114.854 117.612 114.859C117.628 114.864 117.642 114.871 117.653 114.881C117.665 114.89 117.674 114.901 117.681 114.913C117.687 114.925 117.691 114.938 117.69 114.952V115.457H119.592V114.952C119.592 114.938 119.595 114.925 119.602 114.913C119.608 114.901 119.617 114.89 119.629 114.881C119.641 114.872 119.655 114.864 119.67 114.859C119.686 114.854 119.702 114.852 119.719 114.852H122.763C122.779 114.852 122.796 114.854 122.811 114.859C122.827 114.864 122.841 114.872 122.852 114.881C122.864 114.89 122.874 114.901 122.88 114.913C122.886 114.925 122.89 114.938 122.89 114.952V115.457H124.793V114.952C124.793 114.938 124.797 114.925 124.803 114.913C124.809 114.901 124.819 114.89 124.83 114.881C124.842 114.872 124.856 114.864 124.872 114.859C124.887 114.854 124.904 114.852 124.92 114.852H127.964C127.997 114.852 128.029 114.863 128.052 114.881C128.076 114.9 128.089 114.925 128.089 114.952V115.457H129.992V114.952C129.992 114.938 129.996 114.925 130.002 114.913C130.008 114.901 130.018 114.89 130.03 114.881C130.041 114.872 130.055 114.864 130.071 114.859C130.086 114.854 130.103 114.852 130.119 114.852H133.163C133.18 114.852 133.196 114.854 133.212 114.859C133.227 114.864 133.241 114.872 133.253 114.881C133.265 114.89 133.274 114.901 133.28 114.913C133.287 114.925 133.29 114.938 133.29 114.952V115.457H135.192V114.952C135.191 114.938 135.195 114.925 135.201 114.913C135.208 114.901 135.217 114.89 135.229 114.881C135.24 114.872 135.254 114.864 135.27 114.859C135.285 114.854 135.302 114.852 135.318 114.852H138.362C138.379 114.852 138.395 114.854 138.411 114.859C138.426 114.864 138.44 114.872 138.452 114.881C138.464 114.89 138.473 114.901 138.48 114.913C138.486 114.925 138.489 114.938 138.489 114.952V115.457H147.367C147.766 115.456 148.162 115.518 148.531 115.639C148.901 115.759 149.236 115.936 149.519 116.158C149.802 116.381 150.026 116.645 150.179 116.936C150.332 117.227 150.41 117.539 150.41 117.853Z" fill="#3F3D56"/>
<path d="M179.837 119.806H13.7109V120.163H179.837V119.806Z" fill="#3F3D56"/>
<path d="M142.261 72.2343H104.538V71.6221H87.4335V72.2343H49.5555C48.8788 72.2343 48.2298 72.446 47.7513 72.8228C47.2727 73.1996 47.0039 73.7106 47.0039 74.2435V114.917C47.0039 115.45 47.2727 115.961 47.7513 116.338C48.2298 116.715 48.8788 116.926 49.5555 116.926H142.261C142.938 116.926 143.587 116.715 144.065 116.338C144.544 115.961 144.812 115.45 144.812 114.917V74.2435C144.812 73.9797 144.746 73.7184 144.618 73.4746C144.49 73.2308 144.302 73.0094 144.065 72.8228C143.828 72.6362 143.547 72.4882 143.237 72.3872C142.928 72.2863 142.596 72.2343 142.261 72.2343Z" fill="#3F3D56"/>
<path d="M95.9824 90.8958C99.1116 90.8958 101.648 88.8983 101.648 86.4342C101.648 83.9702 99.1116 81.9727 95.9824 81.9727C92.8532 81.9727 90.3164 83.9702 90.3164 86.4342C90.3164 88.8983 92.8532 90.8958 95.9824 90.8958Z" stroke="#D0CDE1" stroke-width="0.35561" stroke-miterlimit="10"/>
<path d="M94.1699 92.5012C97.2991 92.5012 99.8359 90.5037 99.8359 88.0397C99.8359 85.5756 97.2991 83.5781 94.1699 83.5781C91.0406 83.5781 88.5039 85.5756 88.5039 88.0397C88.5039 90.5037 91.0406 92.5012 94.1699 92.5012Z" fill="#D0CDE1"/>
<path d="M24.5764 118.003H18.2305V123H24.5764V118.003Z" fill="#D0CDE1"/>
<path d="M20.7266 114.076V120.144H28.4323V114.076H20.7266ZM28.0969 119.88H21.0597V114.34H28.0969V119.88Z" fill="#3F3D56"/>
<path d="M171.44 118.003H165.094V123H171.44V118.003Z" fill="#D0CDE1"/>
<path d="M167.59 114.076V120.144H175.296V114.076H167.59ZM174.96 119.88H167.923V114.34H174.96V119.88Z" fill="#3F3D56"/>
<path d="M21.4348 41.0665C31.3657 41.0665 39.4164 34.7272 39.4164 26.9073C39.4164 19.0874 31.3657 12.748 21.4348 12.748C11.5038 12.748 3.45312 19.0874 3.45312 26.9073C3.45312 34.7272 11.5038 41.0665 21.4348 41.0665Z" fill="#6C63FF"/>
<path d="M27.7031 10.0813C26.075 9.91822 24.4272 9.91822 22.7991 10.0813C19.1718 10.4563 15.7574 11.6428 12.9608 13.5C10.1642 15.3572 8.10295 17.8071 7.02156 20.5591C6.52975 21.8133 6.25123 23.1132 6.19331 24.425C6.18515 24.6074 6.17969 24.7919 6.17969 24.9764C6.18474 28.958 8.19567 32.7754 11.7712 35.5909C15.3467 38.4063 20.1946 39.9898 25.2511 39.9938C25.6571 39.9938 26.063 39.983 26.4635 39.9637C27.4036 39.9173 28.338 39.8154 29.2588 39.6591C33.6561 38.9145 37.5777 36.9703 40.331 34.1698C43.0844 31.3693 44.4923 27.8927 44.3062 24.3541C44.1201 20.8155 42.3519 17.4425 39.3138 14.8309C36.2758 12.2192 32.1635 10.537 27.7031 10.0813H27.7031ZM31.2204 38.7881H31.2177C29.6818 39.2008 28.0831 39.4511 26.4635 39.5325C26.063 39.554 25.657 39.5647 25.2511 39.5647C20.3394 39.5599 15.6306 38.0215 12.1575 35.2866C8.6844 32.5518 6.73058 28.844 6.72457 24.9764C6.72457 24.7919 6.73002 24.6074 6.73819 24.425C6.92548 20.6558 8.95712 17.0898 12.4078 14.4734C15.8585 11.857 20.4607 10.3931 25.2511 10.3881C29.6403 10.3882 33.8868 11.6154 37.2342 13.851C40.5815 16.0865 42.8123 19.1852 43.529 22.595C44.2456 26.0047 43.4017 29.5041 41.1476 32.4697C38.8935 35.4352 35.3755 37.6743 31.2204 38.7881H31.2204Z" fill="#3F3D56"/>
<path d="M25.5215 11.2461H24.9766V14.2496H25.5215V11.2461Z" fill="#3F3D56"/>
<path d="M13.1119 15.1155L12.7266 15.4189L15.4237 17.5427L15.809 17.2393L13.1119 15.1155Z" fill="#3F3D56"/>
<path d="M7.8125 24.7623V25.1914H11.6268V24.7623H7.8125Z" fill="#3F3D56"/>
<path d="M12.728 34.5325L13.1133 34.8359L15.8104 32.7122L15.4251 32.4088L12.728 34.5325Z" fill="#3F3D56"/>
<path d="M34.6889 17.2396L35.0742 17.543L37.7713 15.4192L37.386 15.1158L34.6889 17.2396Z" fill="#3F3D56"/>
<path d="M38.8711 24.7623V25.1914H42.6854V24.7623H38.8711Z" fill="#3F3D56"/>
<path d="M35.0767 32.4095L34.6914 32.7129L37.3885 34.8367L37.7738 34.5333L35.0767 32.4095Z" fill="#3F3D56"/>
<path d="M25.5215 35.7031H24.9766V38.7066H25.5215V35.7031Z" fill="#3F3D56"/>
<path d="M26.0665 24.1179C25.8307 23.9786 25.5439 23.9033 25.2492 23.9033C24.9544 23.9033 24.6676 23.9786 24.4318 24.1179C24.2704 24.2144 24.1375 24.3374 24.0423 24.4783C23.9216 24.6597 23.8694 24.8646 23.8918 25.0686C23.9143 25.2727 24.0104 25.4674 24.1689 25.6298C24.3275 25.7922 24.5417 25.9155 24.7864 25.985C25.031 26.0546 25.2958 26.0676 25.5495 26.0224C25.8033 25.9772 26.0352 25.8758 26.2181 25.7301C26.4009 25.5844 26.527 25.4006 26.5813 25.2003C26.6357 25 26.6161 24.7916 26.5249 24.5998C26.4337 24.408 26.2746 24.2408 26.0665 24.1179H26.0665ZM25.2492 25.6196C25.0326 25.6191 24.8251 25.5511 24.6719 25.4305C24.5188 25.3099 24.4325 25.1465 24.4318 24.976C24.4329 24.8458 24.4832 24.7189 24.5763 24.6113C24.6561 24.5202 24.7644 24.447 24.8907 24.3985C25.017 24.3501 25.1571 24.3281 25.2973 24.3348C25.4376 24.3415 25.5733 24.3765 25.6913 24.4365C25.8093 24.4966 25.9057 24.5796 25.971 24.6775C26.0364 24.7754 26.0685 24.885 26.0644 24.9956C26.0602 25.1062 26.0199 25.214 25.9474 25.3088C25.8748 25.4035 25.7724 25.4819 25.6501 25.5363C25.5278 25.5908 25.3897 25.6195 25.2492 25.6196V25.6196Z" fill="#3F3D56"/>
<path d="M27.701 6.31152H22.7969V10.1731H27.701V6.31152Z" fill="#3F3D56"/>
<path d="M25.2497 6.95567C28.861 6.95567 31.7885 6.13925 31.7885 5.13213C31.7885 4.12502 28.861 3.30859 25.2497 3.30859C21.6384 3.30859 18.7109 4.12502 18.7109 5.13213C18.7109 6.13925 21.6384 6.95567 25.2497 6.95567Z" fill="#3F3D56"/>
<path d="M26.0683 16.8242H24.4336V24.1184H26.0683V16.8242Z" fill="#3F3D56"/>
<path d="M51.2204 39.3398H0V39.7689H51.2204V39.3398Z" fill="#3F3D56"/>
<path d="M34.1309 107.033C34.3424 112.735 30.1115 114.825 24.8018 114.947C24.6784 114.95 24.5556 114.952 24.4334 114.952C24.1872 114.954 23.9433 114.95 23.7019 114.943C18.8998 114.786 15.0986 112.778 14.902 107.476C14.6985 101.988 23.3486 94.8579 23.9976 94.3305L23.9987 94.33C24.0234 94.3099 24.036 94.2998 24.036 94.2998C24.036 94.2998 33.9195 101.332 34.1309 107.033Z" fill="#D0CDE1"/>
<path d="M24.4179 114.083L27.7908 110.133L24.4248 114.508L24.4318 114.952C24.1855 114.954 23.9417 114.951 23.7002 114.943L23.8675 109.23L23.863 109.186L23.8691 109.177L23.8851 108.637L20.1914 104.414L23.8808 108.233L23.8939 108.347L24.0202 104.031L20.8298 99.6529L24.0293 103.273L23.9959 94.3306L23.996 94.3008L23.9971 94.33L24.2089 101.378L27.1165 98.515L24.2184 101.985L24.2818 105.846L26.9575 102.078L24.2917 106.413L24.327 108.56L28.2181 103.311L24.3388 109.309L24.4179 114.083Z" fill="#3F3D56"/>
<path d="M180.994 107.033C181.206 112.735 176.975 114.825 171.665 114.947C171.542 114.95 171.419 114.952 171.297 114.952C171.05 114.954 170.807 114.95 170.565 114.943C165.763 114.786 161.962 112.778 161.765 107.476C161.562 101.988 170.212 94.8579 170.861 94.3305L170.862 94.33C170.887 94.3099 170.899 94.2998 170.899 94.2998C170.899 94.2998 180.783 101.332 180.994 107.033Z" fill="#D0CDE1"/>
<path d="M171.281 114.083L174.654 110.133L171.288 114.508L171.295 114.952C171.049 114.954 170.805 114.951 170.564 114.943L170.731 109.23L170.726 109.186L170.732 109.177L170.748 108.637L167.055 104.414L170.744 108.233L170.757 108.347L170.884 104.031L167.693 99.6529L170.893 103.273L170.859 94.3306L170.859 94.3008L170.86 94.33L171.072 101.378L173.98 98.515L171.082 101.985L171.145 105.846L173.821 102.078L171.155 106.413L171.19 108.56L175.081 103.311L171.202 109.309L171.281 114.083Z" fill="#3F3D56"/>
</g>
<defs>
<clipPath id="clip0_2_5676">
<rect width="181" height="123" fill="white"/>
</clipPath>
</defs>
</svg>
