<svg width="64" height="64" viewBox="0 0 64 64" fill="none" xmlns="http://www.w3.org/2000/svg">
<path d="M29.3327 13.3337C29.3327 12.6264 29.6137 11.9481 30.1138 11.448C30.6139 10.9479 31.2922 10.667 31.9994 10.667C32.7066 10.667 33.3849 10.9479 33.885 11.448C34.3851 11.9481 34.6661 12.6264 34.6661 13.3337V32.4217L43.3141 23.7737L47.0847 27.5443L31.9994 42.6297L16.9141 27.547L20.6847 23.7763L29.3327 32.4217V13.3337Z" fill="#2D9CDB"/>
<path d="M10.668 37.334H16.0013V48.0007H48.0013V37.334H53.3346V48.0007C53.3346 49.4151 52.7727 50.7717 51.7725 51.7719C50.7723 52.7721 49.4158 53.334 48.0013 53.334H16.0013C14.5868 53.334 13.2303 52.7721 12.2301 51.7719C11.2299 50.7717 10.668 49.4151 10.668 48.0007V37.334Z" fill="#2D9CDB"/>
</svg>
