<svg width="64" height="64" viewBox="0 0 64 64" fill="none" xmlns="http://www.w3.org/2000/svg">
<path d="M46.25 47.25C49.8612 50.19 52 53.0087 52 58" stroke="#EB5757" stroke-width="4.5" stroke-linecap="round" stroke-linejoin="round"/>
<path d="M17.75 47.25C14.1388 50.19 12 53.0075 12 58" stroke="#EB5757" stroke-width="4.5" stroke-linecap="round" stroke-linejoin="round"/>
<path d="M48 26C51.6112 23.06 52 18.9913 52 14" stroke="#EB5757" stroke-width="4.5" stroke-linecap="round" stroke-linejoin="round"/>
<path d="M16 25.75C12.3888 22.81 12 18.9925 12 14" stroke="#EB5757" stroke-width="4.5" stroke-linecap="round" stroke-linejoin="round"/>
<path d="M58 36.0166H48" stroke="#EB5757" stroke-width="4.5" stroke-linecap="round" stroke-linejoin="round"/>
<path d="M16 36.0166H6" stroke="#EB5757" stroke-width="4.5" stroke-linecap="round" stroke-linejoin="round"/>
<path d="M32 24V56" stroke="#EB5757" stroke-width="4.5" stroke-linecap="round" stroke-linejoin="round"/>
<path d="M32 56C23.2 56 16 48.8 16 40V27.9912C16 19.8575 23.2 15.9912 32 15.9912C40.8 15.9912 48 19.1912 48 27.9912V40C48 48.8 40.8 56 32 56Z" stroke="#EB5757" stroke-width="4.5" stroke-linecap="round" stroke-linejoin="round"/>
<path d="M22.4287 17.94C22.1786 17.3127 22.0337 16.6483 22 15.9738C22.0069 13.3307 23.06 10.7978 24.9289 8.9289C26.7978 7.05996 29.3307 6.00693 31.9737 6H32.0262C34.6693 6.00693 37.2022 7.05996 39.0711 8.9289C40.94 10.7978 41.9931 13.3307 42 15.9738C41.9759 16.5878 41.8438 17.1929 41.61 17.7612" stroke="#EB5757" stroke-width="4.5" stroke-linecap="round" stroke-linejoin="round"/>
</svg>
