<svg width="140" height="22" viewBox="0 0 140 22" fill="none" xmlns="http://www.w3.org/2000/svg">
<g clip-path="url(#clip0_279_1677)">
<path d="M60.0969 20.2002L53.9969 3.1002C53.8969 2.9002 53.7969 2.6002 53.7969 2.3002C53.7969 1.6002 54.3969 0.800195 55.3969 0.800195C56.0969 0.800195 56.6969 1.3002 56.9969 2.1002L61.9969 16.8002L67.0969 2.0002C67.2969 1.3002 67.7969 0.700195 68.5969 0.700195H68.7969C69.5969 0.700195 70.1969 1.2002 70.3969 2.0002L75.3969 16.8002L80.4969 2.0002C80.6969 1.4002 81.0969 0.800195 81.9969 0.800195C82.8969 0.800195 83.4969 1.4002 83.4969 2.2002C83.4969 2.5002 83.3969 2.8002 83.2969 3.0002L77.0969 20.1002C76.7969 21.0002 76.1969 21.5002 75.3969 21.5002H75.2969C74.5969 21.5002 73.8969 21.1002 73.5969 20.1002L68.5969 5.6002L63.5969 20.1002C63.2969 21.0002 62.7969 21.5002 61.8969 21.5002H61.7969C60.9969 21.6002 60.3969 21.0002 60.0969 20.2002Z" fill="#717074"/>
<path d="M104.698 2.3998C104.698 1.5998 105.298 0.799805 106.198 0.799805C106.998 0.799805 107.798 1.3998 107.798 2.3998V5.8998C109.298 2.4998 112.598 0.999805 114.698 0.999805C115.598 0.999805 116.198 1.5998 116.198 2.5998C116.198 3.3998 115.698 3.9998 114.798 4.1998C110.898 4.5998 107.698 7.5998 107.698 13.3998V20.1998C107.698 20.9998 107.098 21.7998 106.198 21.7998C105.398 21.7998 104.598 21.1998 104.598 20.1998V2.3998" fill="#717074"/>
<path d="M125.898 21.6998C120.498 21.6998 116.098 17.4998 116.098 11.2998V11.1998C116.098 5.3998 120.098 0.799805 125.598 0.799805C131.498 0.799805 134.798 5.5998 134.798 10.9998C134.798 11.7998 134.198 12.3998 133.398 12.3998H118.998C119.398 16.6998 122.498 19.1998 125.998 19.1998C128.398 19.1998 130.298 18.2998 131.698 16.8998C131.898 16.6998 132.198 16.5998 132.498 16.5998C133.198 16.5998 133.798 17.1998 133.798 17.8998C133.798 18.1998 133.698 18.5998 133.398 18.7998C131.498 20.4998 129.298 21.6998 125.898 21.6998ZM131.798 10.0998C131.498 6.39981 129.398 3.2998 125.498 3.2998C121.998 3.2998 119.398 6.1998 119.098 10.0998H131.798Z" fill="#717074"/>
<path d="M83.3984 15.4998C83.3984 11.1998 86.8984 8.8998 91.9984 8.8998C94.5984 8.8998 96.3984 9.1998 98.1984 9.6998V8.9998C98.1984 5.2998 95.9984 3.5998 92.1984 3.5998C90.1984 3.5998 88.9984 3.7998 87.4984 4.4998C87.2984 4.5998 87.0984 4.5998 86.9984 4.5998C86.2984 4.5998 85.5984 3.9998 85.5984 3.2998C85.5984 2.5998 85.8984 2.2998 86.3984 1.9998C88.3984 1.1998 89.8984 0.799805 92.4984 0.799805C95.2984 0.799805 97.4984 1.4998 98.9984 2.9998C100.398 4.3998 101.098 6.3998 101.098 8.8998V19.9998C101.098 20.7998 100.498 21.4998 99.5984 21.4998C98.7984 21.4998 98.0984 20.8998 98.0984 20.0998V18.0998C96.6984 19.9998 94.2984 21.5998 90.7984 21.5998C87.1984 21.6998 83.3984 19.5998 83.3984 15.4998ZM98.1984 13.8998V11.8998C96.6984 11.4998 94.6984 11.0998 92.1984 11.0998C88.3984 11.0998 86.2984 12.7998 86.2984 15.2998V15.3998C86.2984 17.8998 88.5984 19.3998 91.2984 19.3998C95.1984 19.3998 98.1984 17.0998 98.1984 13.8998Z" fill="#717074"/>
<path d="M5.49848 2.10004C4.89848 0.600039 3.19848 3.92497e-05 1.69848 0.600039C0.198484 1.20004 -0.401516 3.00004 0.398484 4.40004L6.79848 18.3C7.79848 20.5 8.89848 21.7 10.8985 21.7C12.9985 21.7 13.8985 20.4 14.9985 18.3C14.9985 18.3 20.5985 6.10004 20.6985 6.00004C20.7985 5.90004 20.8985 5.50004 21.4985 5.50004C21.9985 5.50004 22.2985 5.90004 22.2985 6.40004V18.2C22.2985 20 23.2985 21.6 25.1985 21.6C27.1985 21.6 28.1985 20.1 28.1985 18.2V8.60004C28.1985 6.70004 29.5985 5.50004 31.2985 5.50004C33.0985 5.50004 34.2985 6.80004 34.2985 8.60004V18.3C34.2985 20.1 35.2985 21.7 37.1985 21.7C39.1985 21.7 40.1985 20.2 40.1985 18.3V8.60004C40.1985 6.70004 41.5985 5.50004 43.2985 5.50004C45.0985 5.50004 46.2985 6.80004 46.2985 8.60004V18.3C46.2985 20.1 47.2985 21.7 49.1985 21.7C51.1985 21.7 52.1985 20.2 52.1985 18.3V7.30004C52.1985 3.20004 48.9985 0.400039 44.9985 0.400039C40.9985 0.400039 38.5985 3.10004 38.5985 3.10004C37.1985 1.40004 35.4985 0.400039 32.3985 0.400039C29.1985 0.400039 26.2985 3.10004 26.2985 3.10004C24.9985 1.40004 22.6985 0.400039 20.9985 0.400039C18.1985 0.400039 15.8985 1.70004 14.4985 4.80004L10.3985 14.4L5.49848 2.10004Z" fill="#717074"/>
<path d="M134.898 3.2998C134.898 1.8998 136.098 0.799805 137.398 0.799805C138.798 0.799805 139.898 1.9998 139.898 3.2998C139.898 4.6998 138.698 5.7998 137.398 5.7998C135.998 5.7998 134.898 4.6998 134.898 3.2998ZM139.398 3.2998C139.398 2.0998 138.598 1.2998 137.398 1.2998C136.198 1.2998 135.398 2.1998 135.398 3.2998C135.398 4.4998 136.198 5.2998 137.398 5.2998C138.598 5.2998 139.398 4.3998 139.398 3.2998Z" fill="#717074"/>
<path d="M138.4 3.4C138.3 3.5 138.1 3.6 137.9 3.7L138.5 4.6H138L137.4 3.7H137V4.6H136.5V2H137.6C137.8 2 137.9 2 138.1 2.1C138.2 2.2 138.4 2.3 138.4 2.4C138.5 2.5 138.5 2.7 138.5 2.8C138.6 3.1 138.5 3.3 138.4 3.4ZM137 3.3H137.6C137.8 3.3 137.9 3.3 138 3.2C138.1 3.1 138.1 3 138.1 2.9C138.1 2.8 138 2.7 138 2.6C137.9 2.5 137.8 2.5 137.6 2.5H137V3.3Z" fill="#717074"/>
</g>
<defs>
<clipPath id="clip0_279_1677">
<rect width="140" height="22" fill="white"/>
</clipPath>
</defs>
</svg>
